<?xml version="1.0" standalone="no"?> 
<!DOCTYPE svg PUBLIC "-//W3C//DTD SVG 1.1//EN" "http://www.w3.org/Graphics/SVG/1.1/DTD/svg11.dtd" >
<svg xmlns="http://www.w3.org/2000/svg">
<defs>
  <font id="veofont" horiz-adv-x="658.863">
    <font-face font-family="veofont"
      units-per-em="658.863" ascent="658.863"
      descent="0" />
    <missing-glyph horiz-adv-x="0" />
    <glyph glyph-name="3d-rotation"
      unicode="&#xF101;"
      horiz-adv-x="658.863" d=" M206.306476875 69.0433518750001C116.67365625 111.5949206250001 52.297250625 198.757005 42.55156875 301.978875H1.37263125C15.37347 132.8707050000001 156.75448875 0 329.4315000000001 0C335.608340625 0 341.510655 0.5490525 347.5502325 0.960841875L242.95573125 105.69260625L206.306476875 69.0433518750001zM230.739313125 248.1717300000001C225.523314375 248.1717300000001 220.719105 248.8580456250001 216.326685 250.5052031250001C212.071528125 252.0150975000001 208.36542375 254.2113075000001 205.345635 256.9565700000001C202.32584625 259.7018325000001 199.992373125 263.1334106250001 198.345215625 266.9767781250001C196.698058125 270.9574087500001 195.874479375 275.2125656250001 195.874479375 279.8795118750001H160.186066875C160.186066875 269.9965668750001 162.107750625 261.3489900000001 165.951118125 253.7995181250002C169.794485625 246.2500462500001 174.87322125 239.9359425000001 181.324588125 234.9944700000001C187.775955 229.9157343750001 195.18816375 226.2096300000001 203.6984775 223.6016306250001C212.2087912499999 220.8563681250001 220.99363125 219.6210000000002 230.32752375 219.6210000000002C240.484995 219.6210000000002 249.956150625 220.9936312500001 258.740990625 223.7388937500002C267.525830625 226.4841562500002 275.0753025 230.6020500000002 281.526669375 235.9553118750002S292.91950875 247.8972037500002 296.6256131250001 255.7212018750002C300.194454375 263.5452000000002 302.116138125 272.4673031250002 302.116138125 282.4875112500002C302.116138125 287.8407731250002 301.4298225 292.9195087500002 300.194454375 297.8609812500002C298.821823125 302.8024537500002 296.76287625 307.4694000000002 294.01761375 311.8618200000002C291.135088125 316.2542400000002 287.42898375 320.0976075000002 282.899300625 323.6664487500002C278.3696175 327.0980268750002 272.741829375 329.9805525000002 266.2904625 332.3140256250002C271.7809875 334.7847618750002 276.585196875 337.8045506250002 280.703090625 341.3733918750002C284.820984375 344.9422331250002 288.2525625 348.7856006250002 290.997825 352.7662312500002C293.7430875 356.8841250000002 295.802034375 361.0020187500002 297.174665625 365.3944387500002C298.5472968750001 369.7868587500002 299.2336125 374.1792787500002 299.2336125 378.4344356250002C299.2336125 388.4546437500002 297.586455 397.2394837500002 294.29214 404.7889556250002C290.997825 412.3384275000002 286.33087875 418.6525312500002 280.29130125 423.7312668750002C274.25172375 428.8100025000002 267.11404125 432.6533700000001 258.6037275 435.2613693750002C249.8188875 438.0066318750002 240.484995 439.2420000000002 230.32752375 439.2420000000002C220.44457875 439.2420000000002 211.247949375 437.7321056250002 202.87489875 434.8495800000002C194.501848125 431.9670543750001 187.364165625 427.8491606250001 181.324588125 422.6331618750002C175.285010625 417.4171631250001 170.618064375 411.2403225000002 167.18648625 404.1026400000001C163.754908125 396.9649575000002 162.107750625 389.1409593750002 162.107750625 380.7679087500001H197.796163125C197.796163125 385.4348550000002 198.619741875 389.5527487500002 200.266899375 393.1215900000001C201.914056875 396.8276943750001 204.24753 399.9847462500001 207.130055625 402.4554825000001C210.01258125 405.0634818750001 213.5814225 407.1224287500001 217.562053125 408.4950600000001C221.54268375 409.8676912500001 225.93510375 410.6912700000002 230.60205 410.6912700000002C241.5831 410.6912700000002 249.681624375 407.8087443750001 255.03488625 402.1809562500001C260.388148125 396.5531681250002 262.9961475 388.5919068750001 262.9961475 378.4344356250001C262.9961475 373.4929631250002 262.309831875 369.1005431250001 260.7999375 365.1199125000001C259.290043125 361.1392818750001 257.093833125 357.7077037500001 254.074044375 354.8251781250001C251.054255625 351.9426525000001 247.210888125 349.7464425000001 242.818468125 348.0992850000001C238.288785 346.4521275000002 232.935523125 345.6285487500002 226.895945625 345.6285487500002H205.757424375V317.4896081250002H226.895945625C232.935523125 317.4896081250002 238.426048125 316.8032925000001 243.2302575 315.4306612500002C248.034466875 314.0580300000002 252.152360625 311.9990831250002 255.58393875 308.9792943750002C259.015516875 306.0967687500002 261.62351625 302.3906643750002 263.5452 297.9982443750002C265.329620625 293.6058243750002 266.2904625 288.3898256250002 266.2904625 282.3502481250001C266.2904625 271.2319350000002 263.133410625 262.7216212500002 256.68204375 256.8193068750002C250.505203125 251.0542556250001 241.85762625 248.1717300000002 230.739313125 248.1717300000002zM465.733783125 410.8285331250001C457.08620625 419.8878993750001 446.65420875 426.8883187500001 434.57505375 431.8297912500001C422.3586356250001 436.7712637500001 409.0441125000001 439.2420000000001 394.356958125 439.2420000000001H329.4315000000001V219.6210000000001H392.435274375C407.67148125 219.6210000000001 421.39779375 222.0917362500001 433.8887381250001 227.0332087500001C446.3796825 231.97468125 456.948943125 238.9751006250001 465.733783125 248.034466875C474.518623125 257.0938331250001 481.381779375 268.0748831250001 486.048725625 280.8403537500001C490.852935 293.6058243750001 493.186408125 308.0184525000001 493.186408125 323.9409750000001V334.7847618750001C493.186408125 350.7072843750001 490.715671875 364.9826493750001 485.9114625 377.8853831250001C481.107253125 390.7881168750001 474.38136 401.7691668750001 465.733783125 410.8285331250001zM454.88999625 323.8037118750001C454.88999625 312.4108725000001 453.654628125 301.978875 450.909365625 292.9195087500001C448.3013662500001 283.722879375 444.4579987500001 276.0361443750001 439.242 269.7220406250001C434.0260012500001 263.407936875 427.574634375 258.6037275000001 419.75063625 255.1721493750001C411.926638125 251.8778343750001 402.867271875 250.09341375 392.435274375 250.09341375H367.59064875V408.4950600000001H394.356958125C414.122848125 408.4950600000001 429.0845287500001 402.1809562500001 439.5165262500001 389.6900118750001C449.8112606250001 377.061804375 455.0272593750001 358.9430718750001 455.0272593750001 335.059288125V323.8037118750001zM329.4315000000001 658.863C323.254659375 658.863 317.352345 658.3139475 311.3127675 657.902158125L415.90726875 553.17039375L452.41926 589.6823850000001C542.18934375 547.2680793750001 606.565749375 460.105995 616.31143125 356.8841250000001H657.49036875C643.4895300000001 525.992295 502.10851125 658.863 329.4315000000001 658.863z" />
    <glyph glyph-name="access-alarms"
      unicode="&#xF102;"
      horiz-adv-x="658.863" d=" M603.95775 501.0104062500001L477.675675 606.7030125000001L441.9872625 564.15144375L568.2693374999999 458.4588375L603.9577499999999 501.01040625zM215.50310625 565.524075L179.81469375 608.07564375L54.90525 501.0104062500001L90.5936625 458.4588375000001L215.50310625 565.524075zM343.1578125000001 439.2420000000001H301.978875V274.5262500000001L432.3788437500001 196.28626875L452.9683125 230.60205L343.1578125000001 295.11571875V439.2420000000001zM329.4315000000001 549.0525C192.168375 549.0525 82.357875 437.8693687500001 82.357875 301.978875S192.168375 54.90525 329.4315000000001 54.90525C465.32199375 54.90525 576.505125 166.0883812500001 576.505125 301.978875S465.32199375 549.0525 329.4315000000001 549.0525zM329.4315000000001 109.8105000000001C223.73889375 109.8105000000001 137.263125 196.28626875 137.263125 301.978875S223.73889375 494.14725 329.4315000000001 494.14725S521.599875 407.6714812500001 521.599875 301.978875C521.599875 194.9136375000001 435.12410625 109.8105000000001 329.4315000000001 109.8105000000001z" />
    <glyph glyph-name="access-alarm"
      unicode="&#xF103;"
      horiz-adv-x="658.863" d=" M603.95775 501.8339850000001L477.8129381250001 607.663854375L442.5363150000001 565.661338125L568.681126875 459.8314687500001L603.95775 501.8339850000001zM216.326685 565.79860125L181.050061875 607.8011175L54.90525 501.971248125L90.181873125 459.968731875L216.326685 565.79860125zM343.1578125000001 439.2420000000001H301.978875V274.5262500000001L432.2415806250001 196.149005625L452.9683125 230.0529975000001L343.1578125000001 295.1157187500001V439.2420000000001zM329.294236875 549.0525C192.7174275 549.0525 82.357875 438.4184212500001 82.357875 301.978875S192.7174275 54.90525 329.294236875 54.90525S576.505125 165.5393287500001 576.505125 301.978875S465.87104625 549.0525 329.294236875 549.0525zM329.4315000000001 109.8105000000001C223.327104375 109.8105000000001 137.263125 195.874479375 137.263125 301.978875S223.327104375 494.14725 329.4315000000001 494.14725S521.599875 408.0832706250001 521.599875 301.978875S435.6731587500001 109.8105000000001 329.4315000000001 109.8105000000001z" />
    <glyph glyph-name="accessibility"
      unicode="&#xF104;"
      horiz-adv-x="658.863" d=" M329.4315000000001 603.95775C359.766650625 603.95775 384.33675 579.3876506250001 384.33675 549.0525S359.766650625 494.14725 329.4315000000001 494.14725S274.52625 518.717349375 274.52625 549.0525S299.096349375 603.95775 329.4315000000001 603.95775zM576.505125 411.7893750000001H411.789375V54.90525H356.8841250000001V219.6210000000001H301.978875V54.90525H247.073625V411.7893750000001H82.357875V466.6946250000001H576.505125V411.7893750000001z" />
    <glyph glyph-name="accessible"
      unicode="&#xF105;"
      horiz-adv-x="658.863" d=" M274.52625 549.0525C274.52625 518.7291677393529 299.1081677393529 494.14725 329.4315000000001 494.14725C359.7548322606472 494.14725 384.33675 518.7291677393529 384.33675 549.0525C384.33675 579.3758322606473 359.7548322606472 603.95775 329.4315000000001 603.95775C299.1081677393529 603.95775 274.52625 579.3758322606473 274.52625 549.0525z M521.599875 301.978875V356.8841250000001C479.460095625 356.3350725000001 436.77126375 377.47359375 409.86769125 407.2596918750001L374.316541875 446.5169456250001C369.5123325 451.7329443750001 363.74728125 455.8508381250001 357.570440625 459.0078900000001C357.2959143750001 459.1451531250001 357.15865125 459.2824162500001 357.0213881250001 459.419679375H356.7468618750001C347.2757062500001 464.910204375 336.02013 467.6554668750001 324.0782381250001 466.4200987500001C295.5275081250001 463.6748362500001 274.5262500000001 438.0066318750001 274.5262500000001 409.3186387500001V247.0736250000001C274.5262500000001 216.738474375 299.0963493750001 192.168375 329.4315000000001 192.168375H466.694625V54.90525H521.599875V205.8946875C521.599875 236.2298381250001 497.029775625 260.7999375000001 466.694625 260.7999375000001H384.33675V355.51149375C419.75063625 326.2744481250001 473.4205181250001 302.116138125 521.599875 301.978875zM352.079915625 164.71575C340.824339375 132.7334418750001 310.351925625 109.8105000000001 274.52625 109.8105000000001C229.0921556250001 109.8105000000001 192.168375 146.734280625 192.168375 192.168375C192.168375 227.9940506250001 215.091316875 258.4664643750001 247.073625 269.7220406250001V326.6862375000001C184.48164 313.9207668750001 137.263125 258.6037275000001 137.263125 192.168375C137.263125 116.3991300000001 198.757005 54.90525 274.52625 54.90525C340.9616025000001 54.90525 396.278641875 102.1237650000001 409.0441125000001 164.71575H352.079915625z" />
    <glyph glyph-name="access-time"
      unicode="&#xF106;"
      horiz-adv-x="658.863" d=" M329.294236875 603.95775C177.61848375 603.95775 54.90525 481.1072531250001 54.90525 329.4315000000001S177.61848375 54.90525 329.294236875 54.90525C480.96999 54.90525 603.95775 177.7557468750001 603.95775 329.4315000000001S480.96999 603.95775 329.294236875 603.95775zM329.4315000000001 109.8105000000001C208.0908975 109.8105000000001 109.8105 208.0908975 109.8105 329.4315000000001S208.0908975 549.0525 329.4315000000001 549.0525S549.0525 450.7721025000001 549.0525 329.4315000000001S450.7721025000001 109.8105000000001 329.4315000000001 109.8105000000001zM343.1578125000001 466.6946250000001H301.978875V301.978875L445.9678931250001 215.5031062500001L466.694625 249.2698350000001L343.1578125000001 322.5683437500001z" />
    <glyph glyph-name="account-balance"
      unicode="&#xF107;"
      horiz-adv-x="658.863" d=" M109.8105 384.3367500000001V192.168375H192.168375V384.3367500000001H109.8105zM274.52625 384.3367500000001V192.168375H356.8841250000001V384.3367500000001H274.52625zM54.90525 54.90525H576.505125V137.2631250000001H54.90525V54.90525zM439.242 384.3367500000001V192.168375H521.599875V384.3367500000001H439.242zM315.7051875 631.410375L54.90525 494.14725V439.2420000000001H576.505125V494.14725L315.7051875 631.410375z" />
    <glyph glyph-name="account-balance-wallet"
      unicode="&#xF108;"
      horiz-adv-x="658.863" d=" M576.505125 164.71575V137.2631250000001C576.505125 106.9279743750001 551.935025625 82.357875 521.599875 82.357875H137.263125C106.927974375 82.357875 82.357875 106.9279743750001 82.357875 137.2631250000001V521.5998750000001C82.357875 551.9350256250001 106.927974375 576.505125 137.263125 576.505125H521.599875C551.935025625 576.505125 576.505125 551.9350256250001 576.505125 521.5998750000001V494.14725H329.4315000000001C299.096349375 494.14725 274.52625 469.5771506250001 274.52625 439.2420000000001V219.6210000000001C274.52625 189.285849375 299.096349375 164.71575 329.4315000000001 164.71575H576.505125zM329.4315000000001 219.6210000000001H603.95775V439.2420000000001H329.4315000000001V219.6210000000001zM439.242 288.2525625000001C416.4563212500001 288.2525625000001 398.0630625 306.6458212500001 398.0630625 329.4315000000001S416.4563212500001 370.6104375000001 439.242 370.6104375000001S480.4209375 352.2171787500001 480.4209375 329.4315000000001S462.02767875 288.2525625000001 439.242 288.2525625000001z" />
    <glyph glyph-name="account-box"
      unicode="&#xF109;"
      horiz-adv-x="658.863" d=" M82.357875 521.5998750000001V137.2631250000001C82.357875 106.9279743750001 106.927974375 82.357875 137.263125 82.357875H521.599875C551.935025625 82.357875 576.505125 106.9279743750001 576.505125 137.2631250000001V521.5998750000001C576.505125 551.9350256250001 551.935025625 576.505125 521.599875 576.505125H137.263125C106.927974375 576.505125 82.357875 551.9350256250001 82.357875 521.5998750000001zM411.789375 411.7893750000001C411.789375 366.2180175000001 374.865594375 329.4315000000001 329.4315000000001 329.4315000000001S247.073625 366.2180175000001 247.073625 411.7893750000001C247.073625 457.223469375 283.9974056250001 494.14725 329.4315000000001 494.14725S411.789375 457.223469375 411.789375 411.7893750000001zM164.71575 192.168375C164.71575 247.0736250000001 274.52625 277.2715125000001 329.4315000000001 277.2715125000001S494.14725 247.0736250000001 494.14725 192.168375V164.71575H164.71575V192.168375z" />
    <glyph glyph-name="account-circle"
      unicode="&#xF10A;"
      horiz-adv-x="658.863" d=" M329.4315000000001 603.95775C177.755746875 603.95775 54.90525 481.1072531250001 54.90525 329.4315000000001S177.755746875 54.90525 329.4315000000001 54.90525S603.95775 177.7557468750001 603.95775 329.4315000000001S481.107253125 603.95775 329.4315000000001 603.95775zM329.4315000000001 521.5998750000001C374.865594375 521.5998750000001 411.789375 484.676094375 411.789375 439.2420000000001C411.789375 393.6706425000001 374.865594375 356.8841250000001 329.4315000000001 356.8841250000001S247.073625 393.6706425000001 247.073625 439.2420000000001C247.073625 484.676094375 283.9974056250001 521.5998750000001 329.4315000000001 521.5998750000001zM329.4315000000001 131.7726C260.6626743750001 131.7726 200.266899375 166.9119600000001 164.71575 220.1700525000001C165.402065625 274.6635131250001 274.663513125 304.7241375000001 329.4315000000001 304.7241375000001S493.32367125 274.6635131250001 494.14725 220.1700525000001C458.596100625 166.9119600000001 398.200325625 131.7726 329.4315000000001 131.7726z" />
    <glyph glyph-name="acl1"
      unicode="&#xF10B;"
      horiz-adv-x="658.863" d=" M337.0743108 527.0904A94.3491816 92.10904740000001 0 0 1 329.4315000000001 527.0904C254.321118 529.066989 199.7672616 448.2903852000001 230.60205 381.7452222000001C258.8013864 306.6348402000001 375.55191 296.0930322000001 418.1144598 364.0876938C465.9479136 426.6796788000001 415.4790078000001 524.8502658 337.0743108 527.0904zM327.5866836 281.0709558000001A334.702404 334.702404 0 0 1 248.1278058 270.6609204C195.8140836 255.7706166000001 123.9980166 235.3458636000001 115.0374798 174.2033772A258.274296 258.274296 0 0 1 329.1679548 61.933122H329.4315000000001A256.0341618 249.8408496 0 0 1 466.0796862 100.2789486C504.2937401999999 126.2381508 576.7686702 175.6528758 519.7111344 220.1920146000001C465.6843684 261.0415206000001 396.2402082000001 281.4662736 327.5866836 280.8074106000001zM329.4315000000001 658.863A329.43149999999997 329.43149999999997 0 1 1 329.4315000000001 0A329.43149999999997 329.43149999999997 0 1 1 329.4315000000001 658.863zM329.4315000000001 632.5084800000001A303.07697999999993 303.07697999999993 0 1 0 329.4315000000001 26.3545200000001A303.07697999999993 303.07697999999993 0 1 0 329.4315000000001 632.5084800000001zM152.856216 329.4315000000001L52.70904 224.0134200000001L90.264231 329.4315000000001L52.70904 434.8495800000001L102.782628 382.1405400000001z" />
    <glyph glyph-name="acl2"
      unicode="&#xF10C;"
      horiz-adv-x="658.863" d=" M220.719105 329.4315000000001L120.571929 224.0134200000001L158.12712 329.4315000000001L120.571929 434.8495800000001L170.645517 382.1405400000001zM337.0743108 527.0904A94.3491816 92.10904740000001 0 0 1 329.4315000000001 527.0904C254.321118 529.066989 199.7672616 448.2903852000001 230.60205 381.7452222000001C258.8013864 306.6348402000001 375.55191 296.0930322000001 418.1144598 364.0876938C465.9479136 426.6796788000001 415.4790078000001 524.8502658 337.0743108 527.0904zM327.5866836 281.0709558000001A334.702404 334.702404 0 0 1 248.1278058 270.6609204C195.8140836 255.7706166000001 123.9980166 235.3458636000001 115.0374798 174.2033772A258.274296 258.274296 0 0 1 329.1679548 61.933122H329.4315000000001A256.0341618 249.8408496 0 0 1 466.0796862 100.2789486C504.2937401999999 126.2381508 576.7686702 175.6528758 519.7111344 220.1920146000001C465.6843684 261.0415206000001 396.2402082000001 281.4662736 327.5866836 280.8074106000001zM329.4315000000001 658.863A329.43149999999997 329.43149999999997 0 1 1 329.4315000000001 0A329.43149999999997 329.43149999999997 0 1 1 329.4315000000001 658.863zM329.4315000000001 632.5084800000001A303.07697999999993 303.07697999999993 0 1 0 329.4315000000001 26.3545200000001A303.07697999999993 303.07697999999993 0 1 0 329.4315000000001 632.5084800000001zM152.856216 329.4315000000001L52.70904 224.0134200000001L90.264231 329.4315000000001L52.70904 434.8495800000001L102.782628 382.1405400000001z" />
    <glyph glyph-name="ac-unit"
      unicode="&#xF10D;"
      horiz-adv-x="658.863" d=" M603.95775 356.8841250000001H489.48030375L578.4268087500001 445.9678931250001L539.5813443750001 484.676094375L411.789375 356.8841250000001H356.8841250000001V411.7893750000001L484.676094375 539.5813443750001L445.9678931250001 578.4268087500001L356.8841250000001 489.4803037500001V603.95775H301.978875V489.4803037500001L212.895106875 578.4268087500001L174.186905625 539.5813443750001L301.978875 411.7893750000001V356.8841250000001H247.073625L119.281655625 484.676094375L80.43619125 445.9678931250001L169.38269625 356.8841250000001H54.90525V301.978875H169.38269625L80.43619125 212.895106875L119.281655625 174.186905625L247.073625 301.978875H301.978875V247.0736250000001L174.186905625 119.281655625L212.895106875 80.43619125L301.978875 169.3826962500001V54.90525H356.8841250000001V169.3826962500001L445.9678931250001 80.43619125L484.676094375 119.281655625L356.8841250000001 247.0736250000001V301.978875H411.789375L539.5813443750001 174.186905625L578.4268087500001 212.895106875L489.48030375 301.978875H603.95775z" />
    <glyph glyph-name="adb"
      unicode="&#xF10E;"
      horiz-adv-x="658.863" d=" M137.263125 219.6210000000001C137.263125 113.5166043749999 223.327104375 27.452625 329.4315000000001 27.452625S521.599875 113.5166043749999 521.599875 219.6210000000001V329.4315000000001H137.263125V219.6210000000001zM442.673578125 538.89502875L500.3240906250001 596.54554125L477.6756750000001 619.193956875L414.3973743750001 555.9156562500001C388.591906875 568.681126875 360.041176875 576.505125 329.4315000000001 576.505125C298.821823125 576.505125 270.2710931250001 568.681126875 244.465625625 555.9156562500001L181.187325 619.193956875L158.538909375 596.54554125L216.189421875 538.89502875C168.5591175 504.030195 137.263125 448.0268400000001 137.263125 384.3367500000001V356.8841250000001H521.599875V384.3367500000001C521.599875 448.0268400000001 490.3038825 504.030195 442.673578125 538.89502875zM247.073625 411.7893750000001C231.8374181250001 411.7893750000001 219.621 424.1430562500001 219.621 439.2420000000001S231.8374181250001 466.6946250000001 247.073625 466.6946250000001C262.309831875 466.6946250000001 274.52625 454.3409437500001 274.52625 439.2420000000001S262.309831875 411.7893750000001 247.073625 411.7893750000001zM411.789375 411.7893750000001C396.553168125 411.7893750000001 384.33675 424.1430562500001 384.33675 439.2420000000001S396.553168125 466.6946250000001 411.789375 466.6946250000001C427.025581875 466.6946250000001 439.242 454.3409437500001 439.242 439.2420000000001S427.025581875 411.7893750000001 411.789375 411.7893750000001z" />
    <glyph glyph-name="add-alarm"
      unicode="&#xF10F;"
      horiz-adv-x="658.863" d=" M216.326685 565.79860125L181.050061875 607.8011175L54.90525 501.971248125L90.181873125 459.968731875L216.326685 565.79860125zM603.95775 501.8339850000001L477.8129381250001 607.663854375L442.5363150000001 565.661338125L568.681126875 459.8314687500001L603.95775 501.8339850000001zM329.294236875 549.0525C192.7174275 549.0525 82.357875 438.4184212500001 82.357875 301.978875S192.7174275 54.90525 329.294236875 54.90525S576.505125 165.5393287500001 576.505125 301.978875S465.87104625 549.0525 329.294236875 549.0525zM329.4315000000001 109.8105000000001C223.327104375 109.8105000000001 137.263125 195.874479375 137.263125 301.978875S223.327104375 494.14725 329.4315000000001 494.14725S521.599875 408.0832706250001 521.599875 301.978875S435.6731587500001 109.8105000000001 329.4315000000001 109.8105000000001zM356.8841250000001 411.7893750000001H301.978875V329.4315000000001H219.621V274.5262500000001H301.978875V192.168375H356.8841250000001V274.5262500000001H439.242V329.4315000000001H356.8841250000001V411.7893750000001z" />
    <glyph glyph-name="add-alert"
      unicode="&#xF110;"
      horiz-adv-x="658.863" d=" M274.80077625 95.80966125C274.80077625 65.61177375 299.2336125000001 41.1789375000001 329.4315000000001 41.1789375000001S384.0622237500001 65.61177375 384.0622237500001 95.80966125H274.80077625zM518.30556 210.83616V370.6104375000001C518.30556 459.8314687500001 456.53715375 534.50260875 373.08117375 554.26849875V574.0343887500001C373.08117375 598.1926987500001 353.5898100000001 617.6840625000001 329.4315000000001 617.6840625000001S285.78182625 598.1926987500001 285.78182625 574.0343887500001V554.26849875C202.32584625 534.50260875 140.55744 459.8314687500001 140.55744 370.6104375000001V210.83616L82.357875 152.636595V123.5368125H576.505125V152.636595L518.30556 210.83616zM439.242 315.567924375H356.8841250000001V233.2100493750001H301.978875V315.567924375H219.621V370.6104375000001H301.978875V452.9683125H356.8841250000001V370.6104375000001H439.242V315.5679243750001z" />
    <glyph glyph-name="add-a-photo"
      unicode="&#xF111;"
      horiz-adv-x="658.863" d=" M82.357875 549.0525V631.410375H137.263125V549.0525H219.621V494.14725H137.263125V411.7893750000001H82.357875V494.14725H0V549.0525H82.357875zM164.71575 384.3367500000001V466.6946250000001H247.073625V549.0525H439.242L489.48030375 494.14725H576.505125C606.7030125000001 494.14725 631.410375 469.4398875000001 631.410375 439.2420000000001V109.8105000000001C631.410375 79.6126125 606.7030125000001 54.90525 576.505125 54.90525H137.263125C107.0652375 54.90525 82.357875 79.6126125 82.357875 109.8105000000001V384.3367500000001H164.71575zM356.8841250000001 137.2631250000001C432.65337 137.2631250000001 494.14725 198.7570050000001 494.14725 274.5262500000001S432.65337 411.7893750000001 356.8841250000001 411.7893750000001S219.621 350.295495 219.621 274.5262500000001S281.1148800000001 137.2631250000001 356.8841250000001 137.2631250000001zM269.035725 274.5262500000001C269.035725 225.9351037500001 308.2929787500001 186.67785 356.8841250000001 186.67785S444.732525 225.9351037500001 444.732525 274.5262500000001S405.47527125 362.3746500000001 356.8841250000001 362.3746500000001S269.035725 323.11739625 269.035725 274.5262500000001z" />
    <glyph glyph-name="add-box"
      unicode="&#xF112;"
      horiz-adv-x="658.863" d=" M521.599875 576.505125H137.263125C106.927974375 576.505125 82.357875 551.9350256250001 82.357875 521.5998750000001V137.2631250000001C82.357875 106.9279743750001 106.927974375 82.357875 137.263125 82.357875H521.599875C551.935025625 82.357875 576.505125 106.9279743750001 576.505125 137.2631250000001V521.5998750000001C576.505125 551.9350256250001 551.935025625 576.505125 521.599875 576.505125zM466.694625 301.978875H356.8841250000001V192.168375H301.978875V301.978875H192.168375V356.8841250000001H301.978875V466.6946250000001H356.8841250000001V356.8841250000001H466.694625V301.978875z" />
    <glyph glyph-name="add-circle-outline"
      unicode="&#xF113;"
      horiz-adv-x="658.863" d=" M356.8841250000001 466.6946250000001H301.978875V356.8841250000001H192.168375V301.978875H301.978875V192.168375H356.8841250000001V301.978875H466.694625V356.8841250000001H356.8841250000001V466.6946250000001zM329.4315000000001 603.95775C177.755746875 603.95775 54.90525 481.1072531250001 54.90525 329.4315000000001S177.755746875 54.90525 329.4315000000001 54.90525S603.95775 177.7557468750001 603.95775 329.4315000000001S481.107253125 603.95775 329.4315000000001 603.95775zM329.4315000000001 109.8105000000001C208.36542375 109.8105000000001 109.8105 208.3654237500001 109.8105 329.4315000000001S208.36542375 549.0525 329.4315000000001 549.0525S549.0525 450.4975762500001 549.0525 329.4315000000001S450.49757625 109.8105000000001 329.4315000000001 109.8105000000001z" />
    <glyph glyph-name="add-circle"
      unicode="&#xF114;"
      horiz-adv-x="658.863" d=" M329.4315000000001 603.95775C177.755746875 603.95775 54.90525 481.1072531250001 54.90525 329.4315000000001S177.755746875 54.90525 329.4315000000001 54.90525S603.95775 177.7557468750001 603.95775 329.4315000000001S481.107253125 603.95775 329.4315000000001 603.95775zM466.694625 301.978875H356.8841250000001V192.168375H301.978875V301.978875H192.168375V356.8841250000001H301.978875V466.6946250000001H356.8841250000001V356.8841250000001H466.694625V301.978875z" />
    <glyph glyph-name="add-location"
      unicode="&#xF115;"
      horiz-adv-x="658.863" d=" M329.4315000000001 603.95775C223.4643675 603.95775 137.263125 517.7565075 137.263125 411.7893750000001C137.263125 267.6630937500001 329.4315000000001 54.90525 329.4315000000001 54.90525S521.599875 267.6630937500001 521.599875 411.7893750000001C521.599875 517.7565075 435.3986325 603.95775 329.4315000000001 603.95775zM439.242 384.3367500000001H356.8841250000001V301.978875H301.978875V384.3367500000001H219.621V439.2420000000001H301.978875V521.5998750000001H356.8841250000001V439.2420000000001H439.242V384.3367500000001z" />
    <glyph glyph-name="address-book"
      unicode="&#xF116;"
      horiz-adv-x="576.505125" d=" M561.0630234375001 452.9683125C569.556179296875 452.9683125 576.505125 459.917258203125 576.505125 468.4104140625001V519.8840859375C576.505125 528.3772417968751 569.556179296875 535.3261875000001 561.0630234375001 535.3261875000001H535.3261875000001V597.0945937500001C535.3261875000001 631.1959013671875 507.6590888671876 658.863 473.5577812500001 658.863H61.76840625C27.6670986328125 658.863 0 631.1959013671875 0 597.0945937500001V61.76840625C0 27.6670986328126 27.6670986328125 0 61.76840625 0H473.5577812500001C507.6590888671876 0 535.3261875000001 27.6670986328126 535.3261875000001 61.76840625V123.5368125H561.0630234375001C569.556179296875 123.5368125 576.505125 130.485758203125 576.505125 138.9789140625001V190.4525859375C576.505125 198.9457417968751 569.556179296875 205.8946875 561.0630234375001 205.8946875H535.3261875000001V288.2525625H561.0630234375001C569.556179296875 288.2525625 576.505125 295.201508203125 576.505125 303.6946640625V355.1683359375001C576.505125 363.661491796875 569.556179296875 370.6104375000001 561.0630234375001 370.6104375000001H535.3261875000001V452.9683125H561.0630234375001zM267.6630937500001 494.14725C313.0886091796875 494.14725 350.02096875 457.2148904296876 350.02096875 411.7893750000001S313.0886091796875 329.4315000000001 267.6630937500001 329.4315000000001S185.30521875 366.3638595703125 185.30521875 411.7893750000001S222.2375783203125 494.14725 267.6630937500001 494.14725zM411.7893750000001 189.4231125C411.7893750000001 175.782589453125 398.9209570312501 164.71575 382.9641187500001 164.71575H152.36206875C136.40523046875 164.71575 123.5368125 175.7825894531251 123.5368125 189.4231125V214.130475C123.5368125 255.052044140625 162.2707505859375 288.2525625 210.01258125 288.2525625H216.446790234375C232.2749443359376 281.6896693359375 249.5186244140625 277.9578281250001 267.6630937500001 277.9578281250001S303.17992734375 281.6896693359375 318.879397265625 288.2525625H325.31360625C373.0554369140626 288.2525625 411.7893750000001 255.052044140625 411.7893750000001 214.130475V189.4231125z" />
    <glyph glyph-name="address-card"
      unicode="&#xF117;"
      horiz-adv-x="741.2208750000001" d=" M679.4524687500001 617.6840625000001H61.76840625C27.6670986328125 617.6840625000001 0 590.0169638671875 0 555.91565625V102.94734375C0 68.8460361328125 27.6670986328125 41.1789375 61.76840625 41.1789375H679.4524687500001C713.5537763671875 41.1789375 741.2208750000001 68.8460361328125 741.2208750000001 102.94734375V555.91565625C741.2208750000001 590.0169638671875 713.5537763671875 617.6840625000001 679.4524687500001 617.6840625000001zM226.48415625 494.14725C271.9096716796876 494.14725 308.8420312500001 457.2148904296876 308.8420312500001 411.7893750000001S271.9096716796876 329.4315000000001 226.48415625 329.4315000000001S144.12628125 366.3638595703125 144.12628125 411.7893750000001S181.0586408203125 494.14725 226.48415625 494.14725zM370.6104375000001 189.4231125C370.6104375000001 175.782589453125 357.7420195312501 164.71575 341.7851812500001 164.71575H111.18313125C95.22629296875 164.71575 82.357875 175.7825894531251 82.357875 189.4231125V214.130475C82.357875 255.052044140625 121.0918130859375 288.2525625 168.83364375 288.2525625H175.267852734375C191.0960068359375 281.6896693359375 208.3396869140625 277.9578281250001 226.48415625 277.9578281250001S262.00098984375 281.6896693359375 277.7004597656251 288.2525625H284.1346687500001C331.8764994140626 288.2525625 370.6104375000001 255.052044140625 370.6104375000001 214.130475V189.4231125zM658.863 257.368359375C658.863 251.7062554687501 654.2303695312501 247.073625 648.5682656250001 247.073625H463.263046875C457.6009429687501 247.073625 452.9683125 251.7062554687501 452.9683125 257.368359375V277.9578281250001C452.9683125 283.61993203125 457.6009429687501 288.2525625 463.263046875 288.2525625H648.5682656250001C654.2303695312501 288.2525625 658.863 283.61993203125 658.863 277.9578281250001V257.368359375zM658.863 339.7262343750001C658.863 334.06413046875 654.2303695312501 329.4315000000001 648.5682656250001 329.4315000000001H463.263046875C457.6009429687501 329.4315000000001 452.9683125 334.06413046875 452.9683125 339.7262343750001V360.3157031250001C452.9683125 365.9778070312501 457.6009429687501 370.6104375000001 463.263046875 370.6104375000001H648.5682656250001C654.2303695312501 370.6104375000001 658.863 365.9778070312501 658.863 360.3157031250001V339.7262343750001zM658.863 422.0841093750001C658.863 416.4220054687501 654.2303695312501 411.7893750000001 648.5682656250001 411.7893750000001H463.263046875C457.6009429687501 411.7893750000001 452.9683125 416.4220054687501 452.9683125 422.0841093750001V442.6735781250001C452.9683125 448.3356820312501 457.6009429687501 452.9683125 463.263046875 452.9683125H648.5682656250001C654.2303695312501 452.9683125 658.863 448.3356820312501 658.863 442.6735781250001V422.0841093750001z" />
    <glyph glyph-name="add-shopping-cart"
      unicode="&#xF118;"
      horiz-adv-x="658.863" d=" M301.978875 411.7893750000001H356.8841250000001V494.14725H439.242V549.0525H356.8841250000001V631.410375H301.978875V549.0525H219.621V494.14725H301.978875V411.7893750000001zM192.168375 164.71575C161.833224375 164.71575 137.53765125 140.145650625 137.53765125 109.8105000000001S161.833224375 54.90525 192.168375 54.90525S247.073625 79.4753493750001 247.073625 109.8105000000001S222.503525625 164.71575 192.168375 164.71575zM466.694625 164.71575C436.359474375 164.71575 412.06390125 140.145650625 412.06390125 109.8105000000001S436.359474375 54.90525 466.694625 54.90525S521.599875 79.4753493750001 521.599875 109.8105000000001S497.029775625 164.71575 466.694625 164.71575zM196.972584375 253.93678125C196.972584375 255.1721493750001 197.247110625 256.2702543750001 197.796163125 257.23109625L222.503525625 301.978875H427.025581875C447.6150506250001 301.978875 465.5965200000001 313.371714375 475.067675625 330.2550787500001L581.034808125 522.69798L532.992714375 549.0525H532.85545125L502.520300625 494.14725L426.8883187500001 356.8841250000001H234.308154375L230.739313125 364.2963337500001L169.10817 494.14725L143.02817625 549.0525L117.085445625 603.95775H27.452625V549.0525H82.357875L181.187325 340.824339375L143.989018125 273.5654081250001C139.73386125 265.6041468750001 137.263125 256.6820437500001 137.263125 247.0736250000001C137.263125 216.738474375 161.833224375 192.168375 192.168375 192.168375H521.599875V247.0736250000001H203.835740625C199.992373125 247.0736250000001 196.972584375 250.09341375 196.972584375 253.93678125z" />
    <glyph glyph-name="add"
      unicode="&#xF119;"
      horiz-adv-x="658.863" d=" M521.599875 301.978875H356.8841250000001V137.2631250000001H301.978875V301.978875H137.263125V356.8841250000001H301.978875V521.5998750000001H356.8841250000001V356.8841250000001H521.599875V301.978875z" />
    <glyph glyph-name="add-to-photos"
      unicode="&#xF11A;"
      horiz-adv-x="658.863" d=" M109.8105 494.14725H54.90525V109.8105000000001C54.90525 79.4753493750001 79.475349375 54.90525 109.8105 54.90525H494.14725V109.8105000000001H109.8105V494.14725zM549.0525 603.95775H219.621C189.285849375 603.95775 164.71575 579.3876506250001 164.71575 549.0525V219.6210000000001C164.71575 189.285849375 189.285849375 164.71575 219.621 164.71575H549.0525C579.387650625 164.71575 603.95775 189.285849375 603.95775 219.6210000000001V549.0525C603.95775 579.3876506250001 579.387650625 603.95775 549.0525 603.95775zM521.599875 356.8841250000001H411.789375V247.0736250000001H356.8841250000001V356.8841250000001H247.073625V411.7893750000001H356.8841250000001V521.5998750000001H411.789375V411.7893750000001H521.599875V356.8841250000001z" />
    <glyph glyph-name="add-to-queue"
      unicode="&#xF11B;"
      horiz-adv-x="658.863" d=" M576.505125 576.505125H82.357875C52.022724375 576.505125 27.452625 551.9350256250001 27.452625 521.5998750000001V192.168375C27.452625 161.8332243750001 52.022724375 137.2631250000001 82.357875 137.2631250000001H219.621V82.357875H439.242V137.2631250000001H576.505125C606.840275625 137.2631250000001 631.13584875 161.8332243750001 631.13584875 192.168375L631.410375 521.5998750000001C631.410375 551.9350256250001 606.840275625 576.505125 576.505125 576.505125zM576.505125 192.168375H82.357875V521.5998750000001H576.505125V192.168375zM439.242 384.3367500000001V329.4315000000001H356.8841250000001V247.0736250000001H301.978875V329.4315000000001H219.621V384.3367500000001H301.978875V466.6946250000001H356.8841250000001V384.3367500000001H439.242z" />
    <glyph glyph-name="adjust"
      unicode="&#xF11C;"
      horiz-adv-x="658.863" d=" M329.4315000000001 603.95775C178.030273125 603.95775 54.90525 480.832726875 54.90525 329.4315000000001S178.030273125 54.90525 329.4315000000001 54.90525S603.95775 178.030273125 603.95775 329.4315000000001S480.832726875 603.95775 329.4315000000001 603.95775zM329.4315000000001 109.8105000000001C208.36542375 109.8105000000001 109.8105 208.3654237500001 109.8105 329.4315000000001S208.36542375 549.0525 329.4315000000001 549.0525S549.0525 450.4975762500001 549.0525 329.4315000000001S450.49757625 109.8105000000001 329.4315000000001 109.8105000000001zM411.789375 329.4315000000001C411.789375 283.9974056250001 374.865594375 247.0736250000001 329.4315000000001 247.0736250000001S247.073625 283.9974056250001 247.073625 329.4315000000001S283.9974056250001 411.7893750000001 329.4315000000001 411.7893750000001S411.789375 374.865594375 411.789375 329.4315000000001z" />
    <glyph glyph-name="ad"
      unicode="&#xF11D;"
      horiz-adv-x="658.863" d=" M202.70331984375 308.8420312500001H250.2649926562501L226.48415625 377.3277516796876L202.70331984375 308.8420312500001zM452.9683125 329.4315000000001C435.9433955273438 329.4315000000001 422.0841093750001 315.5722138476563 422.0841093750001 298.5472968750001S435.9433955273438 267.6630937500001 452.9683125 267.6630937500001S483.852515625 281.5223799023438 483.852515625 298.5472968750001S469.9932294726563 329.4315000000001 452.9683125 329.4315000000001zM597.0945937500001 576.505125H61.76840625C27.6670986328125 576.505125 0 548.8380263671876 0 514.73671875V144.12628125C0 110.0249736328125 27.6670986328125 82.357875 61.76840625 82.357875H597.0945937500001C631.1959013671875 82.357875 658.863 110.0249736328125 658.863 144.12628125V514.73671875C658.863 548.8380263671876 631.1959013671875 576.505125 597.0945937500001 576.505125zM322.4568174609376 205.8946875H300.657717421875C291.8943247851563 205.8946875 284.0831950781251 211.4538440625 281.2006694531251 219.7282368164063L271.7166454101563 247.073625H181.2645355078125L171.767643046875 219.7282368164063A20.58946875 20.58946875 0 0 0 152.310595078125 205.8946875H130.5114950390625C116.3433668554688 205.8946875 106.4089481835938 219.8569209960938 111.0544470703125 233.2400756835938L180.1578515625 432.2244227343751A30.877768916015633 30.877768916015633 0 0 0 209.3305550976563 452.9683125H243.6377574023438A30.871334707031252 30.871334707031252 0 0 0 272.8104609375 432.2115543164063L341.9009970117188 233.2400756835938C346.5464958984376 219.8569209960938 336.6120772265625 205.8946875 322.4568174609375 205.8946875zM545.620921875 226.48415625C545.620921875 215.108474765625 536.407134609375 205.8946875 525.0314531250001 205.8946875H504.4419843750001C498.2008016601563 205.8946875 492.80893453125 208.8158183789063 489.0256196484375 213.2039489062501C477.933043359375 208.4941079296875 465.7466515429688 205.8946875 452.9683125 205.8946875C401.8806931640626 205.8946875 360.3157031250001 247.4596775390625 360.3157031250001 298.5472968750001S401.8806931640626 391.1999062500001 452.9683125 391.1999062500001C463.8549941015625 391.1999062500001 474.1497284765625 388.9736699414063 483.852515625 385.5120655078126V432.3788437500001C483.852515625 443.754525234375 493.0663028906251 452.9683125 504.4419843750001 452.9683125H525.0314531250001C536.407134609375 452.9683125 545.620921875 443.754525234375 545.620921875 432.3788437500001V226.48415625z" />
    <glyph glyph-name="aex"
      unicode="&#xF11E;"
      horiz-adv-x="658.863" d=" M211.8903408 469.3740012000001H276.1953696C283.8381804 469.3740012000001 290.0314926 463.180689 290.0314926 455.5378782V342.6087600000001L369.7539156 393.4729836C378.9779976 399.2709780000001 391.1010768 392.6823480000001 391.1010768 381.6134496000001V342.0816696000001L470.8234998 392.9458932000001C480.0475818 398.7438876000001 492.1706609999999 392.1552576000001 492.1706609999999 381.0863592000001V225.3311460000001C492.1706609999999 217.6883352000001 485.9773488 211.4950230000001 478.334538 211.4950230000001H211.8903408C204.24753 211.4950230000001 198.0542178 217.5565626000001 198.0542178 225.3311460000001V455.4061056C198.0542178 463.0489164000001 204.1157574 469.2422286000001 211.8903408 469.2422286000001zM329.4315000000001 658.863A329.43149999999997 329.43149999999997 0 1 1 329.4315000000001 0A329.43149999999997 329.43149999999997 0 1 1 329.4315000000001 658.863zM329.4315000000001 632.5084800000001A303.07697999999993 303.07697999999993 0 1 0 329.4315000000001 26.3545200000001A303.07697999999993 303.07697999999993 0 1 0 329.4315000000001 632.5084800000001zM152.856216 329.4315000000001L52.70904 224.0134200000001L90.264231 329.4315000000001L52.70904 434.8495800000001L102.782628 382.1405400000001z" />
    <glyph glyph-name="air-freshener"
      unicode="&#xF11F;"
      horiz-adv-x="494.14725000000004" d=" M487.6358305078126 245.2591780664063L366.3638595703125 370.6104375000001H429.7022128125C449.3908923046875 370.6104375000001 460.1488897265625 391.972011328125 447.5378401171875 406.0371921679688L301.7000592773438 568.8355478906251C306.1139266406251 577.3415721679688 308.8420312500001 586.8513330468751 308.8420312500001 597.0945937500001C308.8420312500001 631.2087697851563 281.1878010351563 658.863 247.073625 658.863S185.30521875 631.2087697851563 185.30521875 597.0945937500001C185.30521875 586.8513330468751 188.033323359375 577.3415721679688 192.4471907226563 568.8355478906251L46.6094098828125 406.0371921679688C33.9983602734375 391.972011328125 44.7563576953125 370.6104375000001 64.4450371875 370.6104375000001H127.7833904296875L6.5114194921875 245.2591780664063C-8.6089716210938 229.6240502343751 4.2980516015625 205.8946875 27.9244669921875 205.8946875H205.8946875V164.71575H61.76840625C50.392724765625 164.71575 41.1789375 155.501962734375 41.1789375 144.12628125V20.58946875C41.1789375 9.213787265625 50.392724765625 0 61.76840625 0H432.3788437500001C443.754525234375 0 452.9683125 9.213787265625 452.9683125 20.58946875V144.12628125C452.9683125 155.501962734375 443.754525234375 164.71575 432.3788437500001 164.71575H288.2525625V205.8946875H466.2227830078126C489.8491983984376 205.8946875 502.7562216210938 229.6240502343751 487.6358305078126 245.2591780664063zM247.073625 617.7097993359375C258.4621749023438 617.7097993359375 267.6888305859375 608.4831436523438 267.6888305859375 597.0945937500001C267.6888305859375 585.718912265625 258.4621749023438 576.4793881640626 247.073625 576.4793881640626S226.4584194140625 585.718912265625 226.4584194140625 597.0945937500001C226.4584194140625 608.4831436523438 235.6850750976563 617.7097993359375 247.073625 617.7097993359375zM391.1999062500001 102.94734375V61.76840625H102.94734375V102.94734375H391.1999062500001z" />
    <glyph glyph-name="airline-seat-flat-angled"
      unicode="&#xF120;"
      horiz-adv-x="658.863" d=" M610.958169375 266.7022518750001L592.0158581249999 214.95405375L252.56415 337.3927612500001L309.528346875 492.6373556250001L544.5228168750001 407.8087443750001C602.1733293750001 387.0820125 631.9594275000001 323.8037118750001 610.9581693750001 266.7022518750001zM41.1789375 325.7253956250001L219.621 261.34899V137.2631250000001H439.242V182.01090375L563.465128125 137.2631250000001L582.407439375 189.0113231250001L60.12124875 377.47359375L41.1789375 325.7253956250001zM200.266899375 378.7089618750001C241.30857375 398.3375887500001 258.6037275 447.4777875000001 238.975100625 488.519461875C219.34647375 529.5611362500001 170.206275 546.8562900000001 129.164600625 527.227663125C88.12292625 507.59903625 70.8277725 458.4588375000001 90.456399375 417.4171631250001C110.08502625 376.3754887500001 159.225225 359.0803350000001 200.266899375 378.7089618750001z" />
    <glyph glyph-name="airline-seat-flat"
      unicode="&#xF121;"
      horiz-adv-x="658.863" d=" M603.95775 356.8841250000001V301.978875H247.073625V466.6946250000001H494.14725C554.8175512500001 466.6946250000001 603.95775 417.5544262500001 603.95775 356.8841250000001zM54.90525 274.5262500000001V219.6210000000001H219.621V164.71575H439.242V219.6210000000001H603.95775V274.5262500000001H54.90525zM196.149005625 326.6862375000001C227.994050625 359.2175981250001 227.444998125 411.3775856250001 194.9136375 443.0853675000001C162.382276875 474.9304125000001 110.222289375 474.3813600000001 78.5145075 441.8499993750001C46.6694625 409.3186387500001 47.218515 357.1586512500001 79.749875625 325.4508693750001C112.143973125 293.6058243750001 164.303960625 294.154876875 196.149005625 326.6862375000001z" />
    <glyph glyph-name="airline-seat-individual-suite"
      unicode="&#xF122;"
      horiz-adv-x="658.863" d=" M192.168375 301.978875C237.602469375 301.978875 274.52625 338.9026556250001 274.52625 384.3367500000001S237.602469375 466.6946250000001 192.168375 466.6946250000001S109.8105 429.770844375 109.8105 384.3367500000001S146.734280625 301.978875 192.168375 301.978875zM521.599875 466.6946250000001H301.978875V274.5262500000001H82.357875V466.6946250000001H27.452625V192.168375H631.410375V356.8841250000001C631.410375 417.5544262500001 582.2701762500001 466.6946250000001 521.599875 466.6946250000001z" />
    <glyph glyph-name="airline-seat-legroom-extra"
      unicode="&#xF123;"
      horiz-adv-x="658.863" d=" M109.8105 329.4315000000001V576.505125H54.90525V329.4315000000001C54.90525 253.6622550000001 116.39913 192.168375 192.168375 192.168375H356.8841250000001V247.0736250000001H192.168375C146.734280625 247.0736250000001 109.8105 283.9974056250001 109.8105 329.4315000000001zM626.74342875 185.7170081250001C616.448694375 205.482898125 591.3295425 212.346054375 571.0146 203.012161875L540.953975625 189.285849375L447.20326125 380.76790875C438.006631875 399.5729568750001 418.9270575 411.51484875 398.0630625 411.51484875L301.978875 411.7893750000001V576.505125H137.263125V356.8841250000001C137.263125 311.4500306250001 174.186905625 274.5262500000001 219.621 274.5262500000001H411.789375L505.40282625 82.357875L607.389328125 129.1646006249999C628.6651125 138.9102825 637.72447875 164.578486875 626.74342875 185.717008125z" />
    <glyph glyph-name="airline-seat-legroom-normal"
      unicode="&#xF124;"
      horiz-adv-x="658.863" d=" M137.263125 329.4315000000001V576.505125H82.357875V329.4315000000001C82.357875 253.6622550000001 143.851755 192.168375 219.621 192.168375H384.33675V247.0736250000001H219.621C174.186905625 247.0736250000001 137.263125 283.9974056250001 137.263125 329.4315000000001zM562.7788125000001 164.71575H521.599875V356.8841250000001C521.599875 387.2192756250001 497.029775625 411.7893750000001 466.694625 411.7893750000001H329.4315000000001V576.505125H164.71575V356.8841250000001C164.71575 311.58729375 201.77679375 274.5262500000001 247.073625 274.5262500000001H439.242V82.357875H562.7788125000001C585.56449125 82.357875 603.95775 100.7511337500001 603.95775 123.5368125S585.56449125 164.71575 562.7788125000001 164.71575z" />
    <glyph glyph-name="airline-seat-legroom-reduced"
      unicode="&#xF125;"
      horiz-adv-x="658.863" d=" M548.22892125 131.6353368750001C553.307656875 105.41808 533.267240625 82.357875 507.8735625 82.357875H384.33675V164.71575L411.789375 274.5262500000001H247.073625C201.77679375 274.5262500000001 164.71575 311.58729375 164.71575 356.8841250000001V576.505125H329.4315000000001V411.7893750000001H466.694625C497.029775625 411.7893750000001 521.599875 387.2192756250001 521.599875 356.8841250000001L466.694625 164.71575H506.363668125C526.26682125 164.71575 544.5228168750001 151.2639637500001 548.22892125 131.6353368750001zM137.263125 329.4315000000001V576.505125H82.357875V329.4315000000001C82.357875 253.6622550000001 143.851755 192.168375 219.621 192.168375H329.4315000000001V247.0736250000001H219.621C174.186905625 247.0736250000001 137.263125 283.9974056250001 137.263125 329.4315000000001z" />
    <glyph glyph-name="airline-seat-recline-extra"
      unicode="&#xF126;"
      horiz-adv-x="658.863" d=" M147.008806875 504.030195C122.16418125 521.462611875 116.12460375 555.6411300000001 133.4197575 580.485755625C150.852174375 605.3303812500001 185.0306925 611.36995875 209.875318125 593.9375418750001C234.7199437500001 576.5051250000001 240.75952125 542.326606875 223.327104375 517.4819812500001C206.031950625 492.7746187500001 171.8534325 486.7350412500001 147.008806875 504.030195zM439.242 137.2631250000001H245.15194125C204.52205625 137.2631250000001 169.93174875 166.91196 163.754908125 206.9927925L109.8105 466.6946250000001H54.90525L109.673236875 198.894268125C119.830708125 131.9098631249999 177.481220625 82.3578749999999 245.2892043750001 82.3578749999999H439.242V137.263125zM445.5561037500001 247.0736250000001H311.58729375L283.448353125 359.6293875C326.6862375 335.1965512500001 373.492963125 317.215081875 424.829371875 326.137185V384.474013125C380.081593125 376.1009625000001 330.392341875 392.0234850000001 296.076560625 418.6525312500001L250.9169925 453.79189125C244.7401518750001 458.5961006250001 237.46520625 462.0276787500001 229.915734375 464.22388875C221.2681575 466.6946250000001 211.934265 467.3809406250001 202.737635625 465.8710462500001L202.05132 465.7337831250001C168.421854375 459.8314687500001 145.910701875 427.8491606250001 151.81301625 394.219695L189.011323125 231.7001550000001C196.423531875 192.854690625 230.32752375 164.71575 269.8593037500001 164.71575H457.909785L562.7788125000001 82.357875L603.95775 123.5368125L445.5561037500001 247.0736250000001z" />
    <glyph glyph-name="airline-seat-recline-normal"
      unicode="&#xF127;"
      horiz-adv-x="658.863" d=" M208.228160625 510.2070356250001C186.815113125 531.6200831250001 186.815113125 566.3476537500001 208.228160625 587.897964375C229.641208125 609.3110118750001 264.36877875 609.3110118750001 285.919089375 587.897964375C307.332136875 566.4849168750001 307.332136875 531.7573462500001 285.919089375 510.2070356250001C264.506041875 488.7939881250001 229.641208125 488.7939881250001 208.228160625 510.2070356250001zM164.71575 219.6210000000001V466.6946250000001H109.8105V219.6210000000001C109.8105 143.8517550000002 171.30438 82.357875 247.073625 82.357875H411.789375V137.2631250000001H247.073625C201.639530625 137.2631250000001 164.71575 174.186905625 164.71575 219.6210000000001zM549.0525 108.026079375L410.004954375 247.0736250000001H315.7051875V348.099285C354.001599375 316.5287662500001 414.6719006250001 288.9388781250001 466.694625 288.8016150000001V348.099285C421.1232675 347.5502325000001 367.59064875 371.9830687500001 338.49086625 404.10264L300.05719125 446.65420875C294.703929375 452.556523125 288.2525625 457.08620625 281.252143125 460.517784375C273.15361875 464.498415 264.0942525 466.831888125 254.76036 466.831888125H254.074044375C219.89552625 466.6946250000001 192.168375 439.104736875 192.168375 404.9262187500001V247.0736250000001C192.168375 201.639530625 229.0921556250001 164.71575 274.52625 164.71575H413.5737956250001L509.657983125 68.6315625000001L549.0525 108.026079375z" />
    <glyph glyph-name="airplanemode-active"
      unicode="&#xF128;"
      horiz-adv-x="658.863" d=" M279.4677225 411.7893750000001 M576.505125 219.6210000000001V274.5262500000001L356.8841250000001 411.7893750000001V562.7788125000001C356.8841250000001 585.5644912500001 338.49086625 603.95775 315.7051875 603.95775S274.52625 585.5644912500001 274.52625 562.7788125000001V411.7893750000001L54.90525 274.5262500000001V219.6210000000001L274.52625 288.2525625000001V137.2631250000001L219.621 96.0841875V54.90525L315.7051875 82.357875L411.789375 54.90525V96.0841875L356.8841250000001 137.2631250000001V288.2525625000001L576.505125 219.6210000000001z" />
    <glyph glyph-name="airplanemode-inactive"
      unicode="&#xF129;"
      horiz-adv-x="658.863" d=" M356.8841250000001 411.7893750000001V562.7788125000001C356.8841250000001 585.5644912500001 338.49086625 603.95775 315.7051875 603.95775S274.52625 585.5644912500001 274.52625 562.7788125000001V461.7531525000001L489.343040625 246.9363618750001L576.505125 219.6210000000001V274.5262500000001L356.8841250000001 411.7893750000001zM82.357875 514.050403125L219.209210625 377.1990675L54.90525 274.5262500000001V219.6210000000001L274.52625 288.2525625000001V137.2631250000001L219.621 96.0841875V54.90525L315.7051875 82.357875L411.789375 54.90525V96.0841875L356.8841250000001 137.2631250000001V239.5241531250001L514.0504031250001 82.357875L549.0525 117.3599718750001L117.359971875 549.0525L82.357875 514.050403125z" />
    <glyph glyph-name="airplay"
      unicode="&#xF12A;"
      horiz-adv-x="658.863" d=" M576.505125 576.505125H82.357875C52.1599875 576.505125 27.452625 551.7977625000001 27.452625 521.5998750000001V192.168375C27.452625 161.9704875 52.1599875 137.2631250000001 82.357875 137.2631250000001H192.168375V192.168375H82.357875V521.5998750000001H576.505125V192.168375H466.694625V137.2631250000001H576.505125C606.7030125000001 137.2631250000001 631.410375 161.9704875 631.410375 192.168375V521.5998750000001C631.410375 551.7977625000001 606.7030125000001 576.505125 576.505125 576.505125zM164.71575 54.90525H494.14725L329.4315000000001 219.6210000000001z" />
    <glyph glyph-name="airport-shuttle"
      unicode="&#xF12B;"
      horiz-adv-x="658.863" d=" M466.694625 521.5998750000001H82.357875C52.022724375 521.5998750000001 27.452625 497.0297756250001 27.452625 466.6946250000001V219.6210000000001H82.357875C82.357875 174.186905625 119.281655625 137.2631250000001 164.71575 137.2631250000001S247.073625 174.186905625 247.073625 219.6210000000001H398.0630625C398.0630625 174.186905625 434.9868431250001 137.2631250000001 480.4209375 137.2631250000001S562.7788125000001 174.186905625 562.7788125000001 219.6210000000001H631.410375V356.8841250000001L466.694625 521.5998750000001zM82.357875 356.8841250000001V466.6946250000001H192.168375V356.8841250000001H82.357875zM164.71575 178.4420625C141.93007125 178.4420625 123.5368125 196.8353212500001 123.5368125 219.6210000000001S141.93007125 260.7999375000001 164.71575 260.7999375000001S205.8946875 242.4066787500001 205.8946875 219.6210000000001S187.50142875 178.4420625 164.71575 178.4420625zM356.8841250000001 356.8841250000001H247.073625V466.6946250000001H356.8841250000001V356.8841250000001zM480.4209375 178.4420625C457.63525875 178.4420625 439.242 196.8353212500001 439.242 219.6210000000001S457.63525875 260.7999375000001 480.4209375 260.7999375000001S521.599875 242.4066787500001 521.599875 219.6210000000001S503.20661625 178.4420625 480.4209375 178.4420625zM411.789375 356.8841250000001V466.6946250000001H439.242L549.0525 356.8841250000001H411.789375z" />
    <glyph glyph-name="alarm-add"
      unicode="&#xF12C;"
      horiz-adv-x="658.863" d=" M216.326685 565.79860125L181.050061875 607.8011175L54.90525 501.971248125L90.181873125 459.968731875L216.326685 565.79860125zM603.95775 501.8339850000001L477.8129381250001 607.663854375L442.5363150000001 565.661338125L568.681126875 459.8314687500001L603.95775 501.8339850000001zM329.294236875 549.0525C192.7174275 549.0525 82.357875 438.4184212500001 82.357875 301.978875S192.7174275 54.90525 329.294236875 54.90525S576.505125 165.5393287500001 576.505125 301.978875S465.87104625 549.0525 329.294236875 549.0525zM329.4315000000001 109.8105000000001C223.327104375 109.8105000000001 137.263125 195.874479375 137.263125 301.978875S223.327104375 494.14725 329.4315000000001 494.14725S521.599875 408.0832706250001 521.599875 301.978875S435.6731587500001 109.8105000000001 329.4315000000001 109.8105000000001zM356.8841250000001 411.7893750000001H301.978875V329.4315000000001H219.621V274.5262500000001H301.978875V192.168375H356.8841250000001V274.5262500000001H439.242V329.4315000000001H356.8841250000001V411.7893750000001z" />
    <glyph glyph-name="alarm-clock"
      unicode="&#xF12D;"
      horiz-adv-x="658.863" d=" M372.4940000000001 279.2180000000001H443.471C459.783 279.2180000000001 473.005 292.4400000000001 473.005 308.7520000000001S459.783 338.2960000000001 443.471 338.2960000000001H372.4840000000001C363.074 351.9830000000001 347.3220000000001 361.0020000000001 329.4220000000001 361.0020000000001C329.1260000000001 361.0020000000001 328.882 360.9280000000001 328.596 360.9070000000001L263.918 451.9440000000001C254.465 465.2500000000001 236.024 468.373 222.729 458.9200000000001C209.434 449.4570000000001 206.321 431.0270000000001 215.764 417.7310000000001L280.5060000000001 326.6090000000001C278.463 321.0200000000001 277.1720000000001 315.0600000000001 277.1720000000001 308.761C277.1720000000001 279.8950000000001 300.555 256.521 329.4120000000001 256.521C347.3210000000001 256.5120000000001 363.073 265.5310000000001 372.4940000000001 279.2180000000001z M547.634 94.3920000000001C601.886 149.5960000000001 635.432 225.2310000000001 635.432 308.7520000000001C635.432 477.7520000000001 498.432 614.741 329.432 614.741S23.432 477.7620000000001 23.432 308.7520000000001C23.432 225.2200000000001 56.989 149.5960000000001 111.24 94.3810000000001L83.558 66.71C68.294 51.4450000000001 68.294 26.7180000000001 83.548 11.4530000000001C91.17 3.8200000000001 101.184 -0.0009999999999 111.176 -0.0009999999999S131.173 3.8200000000002 138.794 11.4420000000001L173.293 45.9300000000001C219.034 18.682 272.312 2.7510000000001 329.432 2.7510000000001S439.8300000000001 18.6820000000001 485.592 45.9400000000001L520.09 11.441C527.7230000000001 3.8190000000001 537.715 -0.002 547.7080000000001 -0.002S567.715 3.8190000000001 575.3370000000001 11.452C590.5910000000001 26.717 590.5910000000001 51.444 575.3260000000001 66.709L547.634 94.3920000000001zM329.421 128.754C318.55 128.754 309.742 119.9260000000001 309.742 109.054V82.5269999999999C200.149 92.001 112.669 179.481 103.205 289.064H129.733C140.605 289.064 149.433 297.892 149.433 308.753C149.433 319.624 140.604 328.441 129.733 328.441H103.205C112.669 438.024 200.149 525.515 309.742 534.968V508.4299999999999C309.742 497.5579999999999 318.55 488.751 329.421 488.751C340.293 488.751 349.11 497.5579999999999 349.11 508.4299999999999V534.968C458.704 525.515 546.172 438.025 555.647 328.441H529.109C518.2370000000001 328.441 509.42 319.624 509.42 308.753C509.42 297.892 518.237 289.064 529.109 289.064H555.647C546.183 179.481 458.7140000000001 92.001 349.1210000000001 82.5269999999999V109.043C349.121 119.9250000000001 340.303 128.754 329.421 128.754z M250.939 631.0440000000001C227.333 648.446 198.222 658.863 166.645 658.863C88.004 658.863 24.247 595.105 24.247 516.465C24.247 497.135 28.132 478.7160000000001 35.119 461.917C78.837 545.586 157.118 608.1780000000001 250.939 631.0440000000001z M623.734 461.9160000000001C630.72 478.7260000000001 634.605 497.145 634.605 516.464C634.616 595.105 570.859 658.863 492.218 658.863C460.62 658.863 431.5300000000001 648.446 407.925 631.022C501.734 608.168 580.016 545.5640000000001 623.734 461.9160000000001z" />
    <glyph glyph-name="alarm-off"
      unicode="&#xF12E;"
      horiz-adv-x="658.863" d=" M329.4315000000001 494.14725C435.535895625 494.14725 521.599875 408.0832706250001 521.599875 301.978875C521.599875 278.781406875 517.344718125 256.6820437500001 509.79524625 236.092575L551.52323625 194.364585C567.4457587500001 226.8959456250001 576.505125 263.4079368750001 576.505125 301.978875C576.505125 438.4184212500001 465.87104625 549.0525 329.294236875 549.0525C290.7232987500001 549.0525 254.348570625 539.9931337500001 221.679946875 524.2078743750001L263.5452 482.3426212500001C284.13466875 489.8920931250001 306.234031875 494.14725 329.4315000000001 494.14725zM603.95775 501.8339850000001L477.8129381250001 607.663854375L442.5363150000001 565.661338125L568.681126875 459.8314687500001L603.95775 501.8339850000001zM80.161665 595.859225625L45.159568125 560.994391875L81.671559375 524.4824006250001L51.199145625 498.9514593750001L90.181873125 459.9687318750001L120.654286875 485.4996731250001L142.616386875 463.5375731250001C105.14355375 420.1624256250001 82.357875 363.7472812500001 82.357875 301.978875C82.357875 165.5393287500001 192.7174275 54.90525 329.294236875 54.90525C391.1999062500001 54.90525 447.6150506250001 77.828191875 490.852935 115.301025L551.24871 54.90525L586.11354375 89.907346875L106.927974375 569.09291625L80.161665 595.859225625zM452.14473375 154.0092262500001C418.7897943750001 126.4193381250001 376.1009625 109.8105000000001 329.4315000000001 109.8105000000001C223.327104375 109.8105000000001 137.263125 195.874479375 137.263125 301.978875C137.263125 348.6483375000001 153.871963125 391.3371693750001 181.46185125 424.69210875L452.14473375 154.0092262500001zM220.032789375 568.955653125L181.050061875 607.938380625L157.715330625 588.30975375L196.6980581250001 549.32702625L220.032789375 568.955653125z" />
    <glyph glyph-name="alarm-on"
      unicode="&#xF12F;"
      horiz-adv-x="658.863" d=" M603.95775 501.8339850000001L477.8129381250001 607.663854375L442.5363150000001 565.661338125L568.681126875 459.8314687500001L603.95775 501.8339850000001zM216.326685 565.79860125L181.050061875 607.8011175L54.90525 501.971248125L90.181873125 459.968731875L216.326685 565.79860125zM329.294236875 549.0525C192.7174275 549.0525 82.357875 438.4184212500001 82.357875 301.978875S192.7174275 54.90525 329.294236875 54.90525S576.505125 165.5393287500001 576.505125 301.978875S465.87104625 549.0525 329.294236875 549.0525zM329.4315000000001 109.8105000000001C223.327104375 109.8105000000001 137.263125 195.874479375 137.263125 301.978875S223.327104375 494.14725 329.4315000000001 494.14725S521.599875 408.0832706250001 521.599875 301.978875S435.6731587500001 109.8105000000001 329.4315000000001 109.8105000000001zM289.2134043750001 260.1136218750001L231.013839375 318.313186875L201.914056875 289.213404375L289.213404375 201.914056875L454.0664175 366.76707L424.966635 395.8668525L289.213404375 260.1136218749999z" />
    <glyph glyph-name="alarm"
      unicode="&#xF130;"
      horiz-adv-x="658.863" d=" M603.95775 501.8339850000001L477.8129381250001 607.663854375L442.5363150000001 565.661338125L568.681126875 459.8314687500001L603.95775 501.8339850000001zM216.326685 565.79860125L181.050061875 607.8011175L54.90525 501.971248125L90.181873125 459.968731875L216.326685 565.79860125zM343.1578125000001 439.2420000000001H301.978875V274.5262500000001L432.2415806250001 196.149005625L452.9683125 230.0529975000001L343.1578125000001 295.1157187500001V439.2420000000001zM329.294236875 549.0525C192.7174275 549.0525 82.357875 438.4184212500001 82.357875 301.978875S192.7174275 54.90525 329.294236875 54.90525S576.505125 165.5393287500001 576.505125 301.978875S465.87104625 549.0525 329.294236875 549.0525zM329.4315000000001 109.8105000000001C223.327104375 109.8105000000001 137.263125 195.874479375 137.263125 301.978875S223.327104375 494.14725 329.4315000000001 494.14725S521.599875 408.0832706250001 521.599875 301.978875S435.6731587500001 109.8105000000001 329.4315000000001 109.8105000000001z" />
    <glyph glyph-name="album"
      unicode="&#xF131;"
      horiz-adv-x="658.863" d=" M329.4315000000001 603.95775C177.755746875 603.95775 54.90525 481.1072531250001 54.90525 329.4315000000001S177.755746875 54.90525 329.4315000000001 54.90525S603.95775 177.7557468750001 603.95775 329.4315000000001S481.107253125 603.95775 329.4315000000001 603.95775zM329.4315000000001 205.8946875C261.211726875 205.8946875 205.8946875 261.2117268750001 205.8946875 329.4315000000001S261.211726875 452.9683125 329.4315000000001 452.9683125S452.9683125 397.6512731250001 452.9683125 329.4315000000001S397.651273125 205.8946875 329.4315000000001 205.8946875zM329.4315000000001 356.8841250000001C314.33255625 356.8841250000001 301.978875 344.5304437500001 301.978875 329.4315000000001S314.33255625 301.978875 329.4315000000001 301.978875S356.8841250000001 314.3325562500001 356.8841250000001 329.4315000000001S344.53044375 356.8841250000001 329.4315000000001 356.8841250000001z" />
    <glyph glyph-name="align-center"
      unicode="&#xF132;"
      horiz-adv-x="576.505125" d=" M555.9156562500001 452.9683125H20.58946875A20.58946875 20.58946875 0 0 1 0 432.3788437500001V391.1999062500001A20.58946875 20.58946875 0 0 1 20.58946875 370.6104375000001H555.9156562500001A20.58946875 20.58946875 0 0 1 576.505125 391.1999062500001V432.3788437500001A20.58946875 20.58946875 0 0 1 555.9156562500001 452.9683125zM555.9156562500001 123.5368125H20.58946875A20.58946875 20.58946875 0 0 1 0 102.94734375V61.76840625A20.58946875 20.58946875 0 0 1 20.58946875 41.1789375H555.9156562500001A20.58946875 20.58946875 0 0 1 576.505125 61.76840625V102.94734375A20.58946875 20.58946875 0 0 1 555.9156562500001 123.5368125zM139.1075982421875 535.3261875000001H437.4103951757812A15.55791732421875 15.55791732421875 0 0 1 452.9683125 550.8969732421875V602.1261451757813A15.55791732421875 15.55791732421875 0 0 1 437.4103951757814 617.6840625000001H139.1075982421875A15.55791732421875 15.55791732421875 0 0 1 123.5368125 602.1261451757813V550.8969732421875A15.5707857421875 15.5707857421875 0 0 1 139.1075982421875 535.3261875000001zM437.4103951757812 205.8946875A15.55791732421875 15.55791732421875 0 0 1 452.9683125 221.4654732421876V272.6946451757813A15.55791732421875 15.55791732421875 0 0 1 437.4103951757814 288.2525625H139.1075982421875A15.55791732421875 15.55791732421875 0 0 1 123.5368125 272.6946451757813V221.4654732421876A15.5707857421875 15.5707857421875 0 0 1 139.1075982421875 205.8946875z" />
    <glyph glyph-name="align-justify"
      unicode="&#xF133;"
      horiz-adv-x="576.505125" d=" M555.9156562500001 123.5368125H20.58946875A20.58946875 20.58946875 0 0 1 0 102.94734375V61.76840625A20.58946875 20.58946875 0 0 1 20.58946875 41.1789375H555.9156562500001A20.58946875 20.58946875 0 0 1 576.505125 61.76840625V102.94734375A20.58946875 20.58946875 0 0 1 555.9156562500001 123.5368125zM555.9156562500001 288.2525625H20.58946875A20.58946875 20.58946875 0 0 1 0 267.6630937500001V226.48415625A20.58946875 20.58946875 0 0 1 20.58946875 205.8946875H555.9156562500001A20.58946875 20.58946875 0 0 1 576.505125 226.48415625V267.6630937500001A20.58946875 20.58946875 0 0 1 555.9156562500001 288.2525625zM555.9156562500001 452.9683125H20.58946875A20.58946875 20.58946875 0 0 1 0 432.3788437500001V391.1999062500001A20.58946875 20.58946875 0 0 1 20.58946875 370.6104375000001H555.9156562500001A20.58946875 20.58946875 0 0 1 576.505125 391.1999062500001V432.3788437500001A20.58946875 20.58946875 0 0 1 555.9156562500001 452.9683125zM555.9156562500001 617.6840625000001H20.58946875A20.58946875 20.58946875 0 0 1 0 597.0945937500001V555.91565625A20.58946875 20.58946875 0 0 1 20.58946875 535.3261875000001H555.9156562500001A20.58946875 20.58946875 0 0 1 576.505125 555.91565625V597.0945937500001A20.58946875 20.58946875 0 0 1 555.9156562500001 617.6840625000001z" />
    <glyph glyph-name="align-left"
      unicode="&#xF134;"
      horiz-adv-x="576.505125" d=" M16.5101802539063 205.8946875H354.1002572460938A16.497311835937502 16.497311835937502 0 0 1 370.6104375000001 222.4048677539063V271.7423822460937A16.497311835937502 16.497311835937502 0 0 1 354.1002572460938 288.2525625H16.5101802539063A16.497311835937502 16.497311835937502 0 0 1 0 271.7423822460938V222.4048677539063A16.497311835937502 16.497311835937502 0 0 1 16.5101802539063 205.8946875zM16.5101802539063 535.3261875000001H354.1002572460938A16.497311835937502 16.497311835937502 0 0 1 370.6104375000001 551.8363677539063V601.1738822460939A16.497311835937502 16.497311835937502 0 0 1 354.1002572460938 617.6840625000001H16.5101802539063A16.497311835937502 16.497311835937502 0 0 1 0 601.1738822460939V551.8363677539063A16.497311835937502 16.497311835937502 0 0 1 16.5101802539063 535.3261875000001zM555.9156562500001 452.9683125H20.58946875A20.58946875 20.58946875 0 0 1 0 432.3788437500001V391.1999062500001A20.58946875 20.58946875 0 0 1 20.58946875 370.6104375000001H555.9156562500001A20.58946875 20.58946875 0 0 1 576.505125 391.1999062500001V432.3788437500001A20.58946875 20.58946875 0 0 1 555.9156562500001 452.9683125zM555.9156562500001 123.5368125H20.58946875A20.58946875 20.58946875 0 0 1 0 102.94734375V61.76840625A20.58946875 20.58946875 0 0 1 20.58946875 41.1789375H555.9156562500001A20.58946875 20.58946875 0 0 1 576.505125 61.76840625V102.94734375A20.58946875 20.58946875 0 0 1 555.9156562500001 123.5368125z" />
    <glyph glyph-name="align-right"
      unicode="&#xF135;"
      horiz-adv-x="576.505125" d=" M20.58946875 370.6104375000001H555.9156562500001A20.58946875 20.58946875 0 0 1 576.505125 391.1999062500001V432.3788437500001A20.58946875 20.58946875 0 0 1 555.9156562500001 452.9683125H20.58946875A20.58946875 20.58946875 0 0 1 0 432.3788437500001V391.1999062500001A20.58946875 20.58946875 0 0 1 20.58946875 370.6104375000001zM555.9156562500001 123.5368125H20.58946875A20.58946875 20.58946875 0 0 1 0 102.94734375V61.76840625A20.58946875 20.58946875 0 0 1 20.58946875 41.1789375H555.9156562500001A20.58946875 20.58946875 0 0 1 576.505125 61.76840625V102.94734375A20.58946875 20.58946875 0 0 1 555.9156562500001 123.5368125zM559.9949447460938 617.6840625000001H222.4048677539063A16.497311835937502 16.497311835937502 0 0 1 205.8946875 601.1738822460939V551.8363677539063A16.497311835937502 16.497311835937502 0 0 1 222.4048677539063 535.3261875000001H559.9949447460938A16.497311835937502 16.497311835937502 0 0 1 576.505125 551.8363677539063V601.1738822460939A16.497311835937502 16.497311835937502 0 0 1 559.9949447460938 617.6840625000001zM559.9949447460938 288.2525625H222.4048677539063A16.497311835937502 16.497311835937502 0 0 1 205.8946875 271.7423822460938V222.4048677539063A16.497311835937502 16.497311835937502 0 0 1 222.4048677539063 205.8946875H559.9949447460938A16.497311835937502 16.497311835937502 0 0 1 576.505125 222.4048677539063V271.7423822460937A16.497311835937502 16.497311835937502 0 0 1 559.9949447460938 288.2525625z" />
    <glyph glyph-name="allergies"
      unicode="&#xF136;"
      horiz-adv-x="576.505125" d=" M535.3261875000001 514.73671875C512.677771875 514.73671875 494.14725 496.206196875 494.14725 473.5577812500001V380.905171875C494.14725 375.2430679687501 489.51461953125 370.6104375000001 483.852515625 370.6104375000001H463.263046875C457.6009429687501 370.6104375000001 452.9683125 375.2430679687501 452.9683125 380.905171875V576.505125C452.9683125 599.153540625 434.4377906250001 617.6840625000001 411.7893750000001 617.6840625000001S370.6104375000001 599.153540625 370.6104375000001 576.505125V380.905171875C370.6104375000001 375.2430679687501 365.97780703125 370.6104375000001 360.3157031250001 370.6104375000001H339.7262343750001C334.0641304687501 370.6104375000001 329.4315000000001 375.2430679687501 329.4315000000001 380.905171875V617.6840625000001C329.4315000000001 640.3324781250001 310.900978125 658.863 288.2525625 658.863S247.073625 640.3324781250001 247.073625 617.6840625000001V380.905171875C247.073625 375.2430679687501 242.4409945312501 370.6104375000001 236.7788906250001 370.6104375000001H216.189421875C210.52731796875 370.6104375000001 205.8946875 375.2430679687501 205.8946875 380.905171875V576.505125C205.8946875 599.153540625 187.364165625 617.6840625000001 164.71575 617.6840625000001S123.5368125 599.153540625 123.5368125 576.505125V266.376251953125L93.16734609375 308.1986103515626C76.438402734375 331.2330785156251 44.2673578125 336.2517615234376 21.2328896484375 319.5228181640626S-6.8202615234375 270.6228298828126 9.9086818359375 247.5883617187501L171.5360115234375 25.3507833984376C183.1175876953125 9.3939451171876 201.77679375 -0.1286841796874 221.4654732421876 -0.1286841796874H475.7454123046876C504.4419843750001 -0.1286841796874 529.2780310546876 19.5599953125002 535.84092421875 47.4844623046877L569.9422318359376 192.5115328125001C574.0601255859376 210.1412654296876 576.2477566406251 228.9291556640627 576.5051250000001 246.9449408203127V473.5577812500001C576.5051250000001 496.206196875 557.9746031250002 514.73671875 535.3261875000002 514.73671875zM226.48415625 123.5368125C215.1599484375 123.5368125 205.8946875 132.8020734375 205.8946875 144.12628125S215.1599484375 164.71575 226.48415625 164.71575S247.073625 155.4504890625 247.073625 144.12628125S237.8083640625001 123.5368125 226.48415625 123.5368125zM226.48415625 247.073625C215.1599484375 247.073625 205.8946875 256.3388859375 205.8946875 267.6630937500001S215.1599484375 288.2525625 226.48415625 288.2525625S247.073625 278.9873015625 247.073625 267.6630937500001S237.8083640625001 247.073625 226.48415625 247.073625zM308.8420312500001 82.357875C297.5178234375 82.357875 288.2525625 91.6231359375 288.2525625 102.94734375S297.5178234375 123.5368125 308.8420312500001 123.5368125S329.4315000000001 114.2715515625 329.4315000000001 102.94734375S320.1662390625001 82.357875 308.8420312500001 82.357875zM308.8420312500001 205.8946875C297.5178234375 205.8946875 288.2525625 215.1599484375 288.2525625 226.48415625S297.5178234375 247.073625 308.8420312500001 247.073625S329.4315000000001 237.8083640625001 329.4315000000001 226.48415625S320.1662390625001 205.8946875 308.8420312500001 205.8946875zM391.1999062500001 164.71575C379.8756984375001 164.71575 370.6104375000001 173.9810109375 370.6104375000001 185.30521875S379.8756984375001 205.8946875 391.1999062500001 205.8946875S411.7893750000001 196.6294265625001 411.7893750000001 185.30521875S402.5241140625001 164.71575 391.1999062500001 164.71575zM432.3788437500001 82.357875C421.0546359375 82.357875 411.7893750000001 91.6231359375 411.7893750000001 102.94734375S421.0546359375 123.5368125 432.3788437500001 123.5368125S452.9683125 114.2715515625 452.9683125 102.94734375S443.7030515625001 82.357875 432.3788437500001 82.357875zM473.5577812500001 247.073625C462.2335734375 247.073625 452.9683125 256.3388859375 452.9683125 267.6630937500001S462.2335734375 288.2525625 473.5577812500001 288.2525625S494.14725 278.9873015625 494.14725 267.6630937500001S484.8819890625001 247.073625 473.5577812500001 247.073625z" />
    <glyph glyph-name="all-inclusive"
      unicode="&#xF137;"
      horiz-adv-x="658.863" d=" M510.6188250000001 476.989359375C471.087045 476.989359375 433.7514750000001 461.6158893750001 406.9851656250001 434.8495800000001L329.4315000000001 366.2180175000001L329.294236875 366.3552806250001L287.70351 329.7060262500001L287.97803625 329.4315000000001L213.993211875 263.8197262500001C196.423531875 246.3873093750001 173.088800625 236.7788906250001 148.244175 236.7788906250001C96.90776625 236.7788906250001 55.17977625 278.3696175000001 55.17977625 329.4315000000001S96.90776625 422.0841093750001 148.244175 422.0841093750001C173.088800625 422.0841093750001 196.423531875 412.4756906250001 215.22858 393.8079056250001L246.387309375 366.2180175000002L287.840773125 402.8672718750002L253.1132025 433.6142118750002C225.111525 461.4786262500002 187.9132181249999 476.8520962500002 148.2441749999999 476.8520962500002C66.4353525 476.989359375 0 410.8285331250001 0 329.4315000000001S66.4353525 181.8736406250001 148.244175 181.8736406250001C187.775955 181.8736406250001 224.974261875 197.247110625 251.877834375 223.876156875L329.4315000000001 292.6449825000001L329.5687631250001 292.507719375L371.0222268750001 329.294236875L370.88496375 329.4315000000001L444.869788125 394.906010625C462.439468125 412.4756906250001 485.7741993749999 422.0841093750001 510.618825 422.0841093750001C561.95523375 422.0841093750001 603.68322375 380.4933825000001 603.68322375 329.4315000000001S561.95523375 236.7788906250001 510.618825 236.7788906250001C485.7741993749999 236.7788906250001 462.439468125 246.3873093750001 443.6344199999999 264.9178312500001L412.4756906249999 292.5077193750001L371.022226875 255.7212018750001L405.7497975 224.974261875C433.7514749999999 197.1098475 470.9497818749999 181.8736406250001 510.481561875 181.8736406250001C592.4276475 181.8736406250001 658.863 248.034466875 658.863 329.4315000000001S592.4276475 476.989359375 510.6188250000001 476.989359375z" />
    <glyph glyph-name="all-out"
      unicode="&#xF138;"
      horiz-adv-x="658.863" d=" M439.242 549.0525L549.0525 439.2420000000001V549.0525zM549.0525 219.6210000000001L439.242 109.8105000000001H549.0525zM219.621 109.8105000000001L109.8105 219.6210000000001V109.8105000000001zM109.8105 439.2420000000001L219.621 549.0525H109.8105zM465.32199375 465.32199375C390.239064375 540.4049231250001 268.623935625 540.4049231250001 193.54100625 465.32199375S118.458076875 268.6239356250001 193.54100625 193.5410062500001S390.239064375 118.4580768750001 465.32199375 193.5410062500001S540.404923125 390.2390643750001 465.32199375 465.32199375zM435.12410625 223.73889375C376.787278125 165.402065625 282.075721875 165.402065625 223.73889375 223.73889375S165.402065625 376.787278125 223.73889375 435.12410625S376.787278125 493.460934375 435.12410625 435.12410625S493.460934375 282.075721875 435.12410625 223.73889375z" />
    <glyph glyph-name="ambulance"
      unicode="&#xF139;"
      horiz-adv-x="823.5787500000001" d=" M802.9892812500001 205.8946875H782.3998125V345.0022857421875C782.3998125 361.3451765625 775.8369193359375 377.0446464843751 764.2553431640625 388.6262226562501L635.6998476562501 517.1817181640625C624.1182714843751 528.7632943359375 608.4188015625001 535.3261875000001 592.0759107421876 535.3261875000001H535.3261875000001V597.0945937500001C535.3261875000001 631.1959013671875 507.6590888671876 658.863 473.5577812500001 658.863H61.76840625C27.6670986328125 658.863 0 631.1959013671875 0 597.0945937500001V185.30521875C0 151.2039111328125 27.6670986328125 123.5368125 61.76840625 123.5368125H82.357875C82.357875 55.334197265625 137.692072265625 0 205.8946875 0S329.4315000000001 55.334197265625 329.4315000000001 123.5368125H494.14725C494.14725 55.334197265625 549.4814472656251 0 617.6840625000001 0S741.2208750000001 55.334197265625 741.2208750000001 123.5368125H802.9892812500001C814.3134890625 123.5368125 823.5787500000001 132.8020734375 823.5787500000001 144.12628125V185.30521875C823.5787500000001 196.6294265625001 814.3134890625 205.8946875 802.9892812500001 205.8946875zM205.8946875 61.76840625C171.7933798828125 61.76840625 144.12628125 89.4355048828126 144.12628125 123.5368125S171.7933798828125 185.30521875 205.8946875 185.30521875S267.6630937500001 157.6381201171875 267.6630937500001 123.5368125S239.9959951171876 61.76840625 205.8946875 61.76840625zM391.1999062500001 380.905171875C391.1999062500001 375.2430679687501 386.5672757812501 370.6104375000001 380.905171875 370.6104375000001H308.8420312500001V298.5472968750001C308.8420312500001 292.8851929687501 304.2094007812501 288.2525625 298.5472968750001 288.2525625H236.7788906250001C231.11678671875 288.2525625 226.48415625 292.8851929687501 226.48415625 298.5472968750001V370.6104375000001H154.421015625C148.75891171875 370.6104375000001 144.12628125 375.2430679687501 144.12628125 380.905171875V442.6735781250001C144.12628125 448.3356820312501 148.75891171875 452.9683125 154.421015625 452.9683125H226.48415625V525.0314531250001C226.48415625 530.6935570312501 231.11678671875 535.3261875000001 236.7788906250001 535.3261875000001H298.5472968750001C304.2094007812501 535.3261875000001 308.8420312500001 530.6935570312501 308.8420312500001 525.0314531250001V452.9683125H380.905171875C386.5672757812501 452.9683125 391.1999062500001 448.3356820312501 391.1999062500001 442.6735781250001V380.905171875zM617.6840625000001 61.76840625C583.5827548828125 61.76840625 555.9156562500001 89.4355048828126 555.9156562500001 123.5368125S583.5827548828125 185.30521875 617.6840625000001 185.30521875S679.4524687500001 157.6381201171875 679.4524687500001 123.5368125S651.7853701171875 61.76840625 617.6840625000001 61.76840625zM720.63140625 329.4315000000001H535.3261875000001V473.5577812500001H592.0759107421876L720.63140625 345.0022857421875V329.4315000000001z" />
    <glyph glyph-name="american-sign-language-interpreting"
      unicode="&#xF13A;"
      horiz-adv-x="823.5787500000001" d=" M373.8880235566407 415.5997135605469C347.7715692890626 428.6598709570314 317.0778187500001 430.0110548437501 290.5791724687501 420.6055281503907C345.4063540664063 420.6055281503907 382.2126031406251 394.2574423593751 400.7045197617188 355.5222174316407C411.7404750117189 332.4890361093751 394.0798581914063 306.5308633828126 370.313177044922 306.5308633828126C394.0283845195313 306.5308633828126 411.7636381640626 280.6190169609376 400.7045197617188 257.5395093339845C381.7557743027345 217.8455872675782 341.3515155644532 192.0984565957032 297.3736971562501 192.0984565957032C296.6569262753907 192.0984565957032 175.8044657636719 203.1845986757813 175.8044657636719 203.1845986757813L90.3504494003907 160.2722852753908C78.2747259785157 154.2331367226564 64.8516791953125 159.7845722343751 59.6013646640625 170.2852012968751L2.3935257421875 284.7176080839844C-2.9687440253906 295.8037501640626 0.9638445058594 309.0350575195312 11.3319288632813 315.1140981679688L86.0614056914063 357.6686695488281L138.9789140625 453.1471835097657C147.2018331445313 526.8124421718751 183.6722165097656 594.3999470273438 241.5955394707032 641.960332998047C256.2539543789063 654.118414294922 278.0659228359376 651.9732490195313 289.8649752714844 637.3109735859375C302.0204828847656 622.6486981523439 299.8766044511719 601.1931848730469 285.2169027011719 589.033816734375C269.1275197148438 575.4460542011719 254.8242731425782 560.0682947285156 243.3829627265626 543.2608540195313C271.2713981484376 562.2147468457032 303.4514509628907 575.0870253398439 338.8486082695313 579.3786427324219C357.7973537285157 581.8815500273438 374.9612496152344 568.6515295136719 377.1064148906251 549.6976366875001C379.6093221855469 530.745030703125 366.379301671875 513.5798479746094 347.4292693710938 511.4346826992188C326.6905269726563 508.9317754042969 307.3827526523438 501.7795086972657 290.57917246875 491.7665926757813C324.1837591523438 499.1183198613281 366.132228046875 495.804702234375 403.9229110957032 477.4633461035157C421.0842332988282 468.8813981601563 428.2352131640625 448.4978240976563 419.6532652207032 431.3326413691407C411.4316329804688 414.5264875019532 390.6941774238282 407.3755076367188 373.8880235566407 415.5997135605469zM338.8486082695314 326.200240248047C330.9834312070313 342.2921969179688 315.2505033984376 352.3051129394532 297.3724103144532 352.3051129394532A45.63141011718751 45.63141011718751 0 0 1 251.6058818085939 306.5321502246095C251.6058818085939 278.957704201172 274.5219605273438 260.7591875097657 297.3724103144532 260.7591875097657C315.2505033984376 260.7591875097657 330.9834312070313 270.7721035312501 338.8486082695314 286.864060201172C344.5699068984377 299.0234283398439 356.3676724921875 306.1744082050782 368.882208966797 306.5321502246095C356.3676724921875 306.8886054023438 344.5699068984375 314.0408721093751 338.8486082695314 326.200240248047zM821.1839374160159 374.1183682382814C826.5474940253908 363.0322261582032 822.6136186523439 349.8009188027345 812.2455342949221 343.7218781542969L737.5173443085939 301.1673067734376L684.5998359375001 205.6887928125C676.3769168554688 132.0235341503906 639.9065334902344 64.4360292949218 581.9832105292969 16.8756433242187C567.9154560058594 5.1499408710937 546.2102954179688 6.3956037304687 533.7137747285157 21.5250027363281C521.5582671152345 36.1872781699218 523.7021455488282 57.6427914492188 538.3631341406251 69.8021595878906C554.4525171269531 83.3899221210938 568.754476857422 98.76768159375 580.1957872734375 115.5751223027344C552.3073518515625 96.6212294765625 520.1272990371094 83.7489509824219 484.7301417304688 79.4573335898438C471.8347000839844 76.2325080468751 449.2750765429688 86.7189818496094 446.472335109375 109.1383396347657C443.9694278144532 128.0909456191406 457.1994483281251 145.2561283476563 476.1494806289063 147.4012936230469C496.8882230273438 149.9054877597656 516.1959973476563 157.0564676249999 532.9995775312501 167.0693836464843C499.3949908476563 159.7176564609374 457.4465219531251 163.0312740878906 419.6558389042969 181.37263021875C402.4945167011719 189.9545781621093 395.3435368359376 210.3381522246094 403.925484779297 227.503334953125C412.1471170195313 244.3107756621094 432.8858594179688 251.4630423691406 449.6920132851563 243.2375496035156C475.8084675527344 230.1773922070312 506.5022180917969 228.8262083203125 533.0008643730469 238.2317350136718C478.1736827753907 238.2317350136718 441.367433701172 264.5798208046876 422.8755170800782 303.3150457324219C411.8395618300782 326.3482270546876 429.5001786503907 352.30639978125 453.2668597968751 352.30639978125C429.5516523222658 352.30639978125 411.8163986777344 378.218246203125 422.8755170800782 401.2977538300782C440.9337680156251 439.1257552910157 479.5467429726563 466.7812723476562 528.3527918027345 466.7388065683593L647.775571078125 455.6526644882812L733.2295874414062 498.5649778886719C745.3361950664063 504.6182817011719 758.7450865898437 499.0205198847656 763.9773853359375 488.5520618671875L821.1839374160157 374.1183682382812zM526.2050528437502 398.0767888125001C508.3269597597658 398.0767888125001 492.5940319511721 388.0638727910157 484.7288548886721 371.9719161210938C479.0075562597658 359.8125479824219 467.2097906660159 352.6615681171876 454.6952541914065 352.3038260976564C467.2097906660159 351.9460840781251 479.0075562597658 344.7938173710938 484.7288548886721 332.6357360742188C492.5940319511722 316.5437794042969 508.3269597597659 306.5308633828126 526.2050528437502 306.5308633828126A45.63141011718751 45.63141011718751 0 0 1 571.9715813496097 352.3038260976564C571.9715813496097 379.8795589628907 549.0555026308596 398.0767888125002 526.2050528437502 398.0767888125002z" />
    <glyph glyph-name="anchor"
      unicode="&#xF13B;"
      horiz-adv-x="741.2208750000001" d=" M16.6916249472656 205.8946875H58.3775781152344C86.4397371796875 73.6909954980469 234.133143890625 0 370.6104375000001 0C507.3103547402344 0 654.8133088652345 73.8389823046875 682.8432968847657 205.8946875H724.5292500527345C738.2868757031251 205.8946875 745.1766266835938 222.5284045664063 735.4481026992188 232.2556417089844L649.1923838964844 318.5113605117188C643.1622432363282 324.5415011718751 633.384819263672 324.5415011718751 627.3533917617189 318.5113605117188L541.0976729589844 232.2556417089844C531.3691489746094 222.5271177246094 538.2588999550782 205.8946875 552.0165256054688 205.8946875H597.2438673984376C571.1338473398438 135.9973016191407 487.9099278105469 94.4696299921876 411.7880881582032 84.9122559667969V329.4315000000001H478.7038615957032C487.2317621835938 329.4315000000001 494.1459631582032 336.3457009746094 494.1459631582032 344.8736015625001V396.3472734375C494.1459631582032 404.8751740253907 487.2317621835938 411.7893750000001 478.7038615957032 411.7893750000001H411.7880881582032V418.8283996289063C459.7628371875001 435.786400828125 494.1395289492189 481.5297661816406 494.1459631582032 535.3107453984376C494.1536842089844 602.5353608671876 439.5915920214844 657.9133107539063 372.3734107617188 658.8501315820313C303.3382088847657 659.8139760878906 247.073625 604.1400525878906 247.073625 535.3261875000001C247.073625 481.5387740742188 281.4528904453126 435.7889745117189 329.4315000000001 418.8283996289063V411.7893750000001H262.5157265625001C253.9878259746094 411.7893750000001 247.073625 404.8751740253907 247.073625 396.3472734375V344.8736015625001C247.073625 336.3457009746094 253.9878259746094 329.4315000000001 262.5157265625001 329.4315000000001H329.4315000000001V84.9122559667969C253.590191859375 94.433598421875 170.0947487109375 135.972851625 143.9757207597656 205.8946875H189.2030625527344C202.960688203125 205.8946875 209.8504391835938 222.5284045664063 200.1219151992188 232.2556417089844L113.8661963964844 318.5113605117188C107.8360557363282 324.5415011718751 98.0586317636719 324.5415011718751 92.0272042617188 318.5113605117188L5.7714854589844 232.2556417089844C-3.9557516835937 222.5284045664063 2.933999296875 205.8946875 16.6916249472656 205.8946875zM370.6104375000001 576.505125C393.3167610058594 576.505125 411.7893750000001 558.0325110058594 411.7893750000001 535.3261875000001S393.3167610058594 494.14725 370.6104375000001 494.14725S329.4315000000001 512.6198639941407 329.4315000000001 535.3261875000001S347.9041139941407 576.505125 370.6104375000001 576.505125z" />
    <glyph glyph-name="android"
      unicode="&#xF13C;"
      horiz-adv-x="658.863" d=" M164.71575 164.71575C164.71575 149.61680625 177.06943125 137.2631250000001 192.168375 137.2631250000001H219.621V41.1789375000001C219.621 18.3932587500001 238.01425875 0 260.7999375 0S301.978875 18.3932587500001 301.978875 41.1789375000001V137.2631250000001H356.8841250000001V41.1789375000001C356.8841250000001 18.3932587500001 375.27738375 0 398.0630625 0S439.242 18.3932587500001 439.242 41.1789375000001V137.2631250000001H466.694625C481.79356875 137.2631250000001 494.14725 149.61680625 494.14725 164.71575V439.2420000000001H164.71575V164.71575zM96.0841875 439.2420000000001C73.29850875 439.2420000000001 54.90525 420.8487412500001 54.90525 398.0630625000001V205.8946875C54.90525 183.1090087500001 73.29850875 164.71575 96.0841875 164.71575S137.263125 183.1090087500001 137.263125 205.8946875V398.0630625000001C137.263125 420.8487412500001 118.86986625 439.2420000000001 96.0841875 439.2420000000001zM562.7788125000001 439.2420000000001C539.9931337500001 439.2420000000001 521.599875 420.8487412500001 521.599875 398.0630625000001V205.8946875C521.599875 183.1090087500001 539.9931337500001 164.71575 562.7788125000001 164.71575S603.95775 183.1090087500001 603.95775 205.8946875V398.0630625000001C603.95775 420.8487412500001 585.56449125 439.2420000000001 562.7788125000001 439.2420000000001zM426.33926625 599.56533L462.1649418750001 635.391005625C467.5182037500001 640.7442675000001 467.5182037500001 649.391844375 462.1649418750001 654.74510625C456.81168 660.0983681250001 448.164103125 660.0983681250001 442.8108412500001 654.74510625L402.18095625 614.252484375C380.21885625 625.0962712500001 355.648756875 631.410375 329.4315000000001 631.410375C303.07698 631.410375 278.3696175 625.0962712500001 256.2702543750001 614.1152212500001L215.50310625 654.882369375C210.149844375 660.2356312500001 201.5022675 660.2356312500001 196.149005625 654.882369375C190.79574375 649.5291075 190.79574375 640.8815306250001 196.149005625 635.52826875L232.111944375 599.56533C191.34479625 569.504705625 164.71575 521.1880856250001 164.71575 466.6946250000001H494.14725C494.14725 521.3253487500001 467.380940625 569.64196875 426.33926625 599.56533zM274.52625 521.5998750000001H247.073625V549.0525H274.52625V521.5998750000001zM411.789375 521.5998750000001H384.33675V549.0525H411.789375V521.5998750000001z" />
    <glyph glyph-name="angle-double-down"
      unicode="&#xF13D;"
      horiz-adv-x="411.78937500000006" d=" M184.018376953125 329.0454474609375L9.007892578125 504.0559318359375C-3.0884203125 516.1522447265626 -3.0884203125 535.7122400390625 9.007892578125 547.6798687500001L38.0905171875 576.7624933593751C50.186830078125 588.85880625 69.746825390625 588.85880625 81.7144541015625 576.7624933593751L205.7660033203125 452.710944140625L329.8175525390626 576.7624933593751C341.9138654296875 588.85880625 361.4738607421876 588.85880625 373.4414894531251 576.7624933593751L402.781482421875 547.8085529296875C414.8777953125 535.7122400390625 414.8777953125 516.1522447265626 402.781482421875 504.1846160156251L227.770998046875 329.1741316406251C215.67468515625 316.9491345703126 196.11468984375 316.9491345703126 184.018376953125 329.0454474609375zM227.770998046875 81.9718224609375L402.781482421875 256.9823068359375C414.8777953125 269.0786197265625 414.8777953125 288.6386150390626 402.781482421875 300.60624375L373.6988578125 329.688868359375C361.6025449218751 341.78518125 342.042549609375 341.78518125 330.0749208984376 329.688868359375L205.8946875 205.7660033203125L81.84313828125 329.8175525390625C69.746825390625 341.9138654296875 50.186830078125 341.9138654296875 38.2192013671875 329.8175525390625L9.007892578125 300.7349279296875C-3.0884203125 288.6386150390626 -3.0884203125 269.0786197265625 9.007892578125 257.110991015625L184.018376953125 82.100506640625C196.11468984375 69.8755095703125 215.67468515625 69.8755095703125 227.770998046875 81.9718224609375z" />
    <glyph glyph-name="angle-double-left"
      unicode="&#xF13E;"
      horiz-adv-x="576.505125" d=" M287.8665099609375 351.3078105468751L462.8769943359375 526.318294921875C474.9733072265625 538.4146078125001 494.5333025390626 538.4146078125001 506.50093125 526.318294921875L535.583555859375 497.2356703125C547.67986875 485.139357421875 547.67986875 465.579362109375 535.583555859375 453.6117333984375L411.6606908203125 329.4315000000001L535.7122400390625 205.3799507812501C547.8085529296875 193.2836378906251 547.8085529296875 173.723642578125 535.7122400390625 161.7560138671876L506.6296154296875 132.5447050781251C494.5333025390626 120.4483921875001 474.9733072265625 120.4483921875001 463.005678515625 132.5447050781251L287.995194140625 307.555189453125C275.7701970703125 319.65150234375 275.7701970703125 339.21149765625 287.8665099609376 351.3078105468751zM40.7928849609375 307.555189453125L215.8033693359375 132.5447050781251C227.8996822265625 120.4483921875001 247.4596775390625 120.4483921875001 259.42730625 132.5447050781251L288.509930859375 161.6273296875C300.6062437500001 173.723642578125 300.6062437500001 193.2836378906251 288.509930859375 205.2512666015625L164.5870658203125 329.4315000000001L288.6386150390626 453.48304921875C300.7349279296876 465.579362109375 300.7349279296876 485.139357421875 288.6386150390626 497.1069861328126L259.5559904296875 526.318294921875C247.4596775390625 538.4146078125001 227.8996822265625 538.4146078125001 215.932053515625 526.318294921875L40.921569140625 351.3078105468751C28.6965720703125 339.21149765625 28.6965720703125 319.65150234375 40.7928849609375 307.555189453125z" />
    <glyph glyph-name="angle-double-right"
      unicode="&#xF13F;"
      horiz-adv-x="576.505125" d=" M288.6386150390626 307.555189453125L113.6281306640625 132.5447050781251C101.5318177734375 120.4483921875001 81.9718224609375 120.4483921875001 70.00419375 132.5447050781251L40.921569140625 161.6273296875C28.82525625 173.723642578125 28.82525625 193.2836378906251 40.921569140625 205.2512666015625L164.973118359375 329.3028158203125L40.921569140625 453.3543650390625C28.82525625 465.4506779296875 28.82525625 485.0106732421875 40.921569140625 496.978301953125L69.8755095703125 526.318294921875C81.9718224609375 538.4146078125001 101.5318177734375 538.4146078125001 113.499446484375 526.318294921875L288.509930859375 351.3078105468751C300.7349279296875 339.21149765625 300.7349279296875 319.65150234375 288.6386150390626 307.555189453125zM535.7122400390625 351.3078105468751L360.7017556640626 526.318294921875C348.6054427734376 538.4146078125001 329.0454474609376 538.4146078125001 317.0778187500001 526.318294921875L287.995194140625 497.2356703125C275.8988812500001 485.139357421875 275.8988812500001 465.579362109375 287.995194140625 453.6117333984375L412.0467433593751 329.5601841796875L287.9951941406251 205.5086349609375C275.8988812500001 193.4123220703126 275.8988812500001 173.8523267578125 287.9951941406251 161.884698046875L317.0778187500001 132.8020734375C329.1741316406251 120.705760546875 348.7341269531251 120.705760546875 360.7017556640626 132.8020734375L535.7122400390625 307.8125578125C547.8085529296875 319.65150234375 547.8085529296875 339.21149765625 535.7122400390625 351.3078105468751z" />
    <glyph glyph-name="angle-double-up"
      unicode="&#xF140;"
      horiz-adv-x="411.78937500000006" d=" M227.770998046875 329.8175525390626L402.781482421875 154.8070681640625C414.8777953125 142.7107552734376 414.8777953125 123.1507599609375 402.781482421875 111.1831312500001L373.6988578125 82.100506640625C361.6025449218751 70.00419375 342.042549609375 70.00419375 330.0749208984376 82.100506640625L205.8946875 206.0233716796876L81.84313828125 81.9718224609376C69.746825390625 69.8755095703126 50.186830078125 69.8755095703126 38.2192013671875 81.9718224609376L9.007892578125 111.0544470703126C-3.0884203125 123.1507599609375 -3.0884203125 142.7107552734376 9.007892578125 154.678383984375L184.018376953125 329.688868359375C196.11468984375 341.9138654296875 215.67468515625 341.9138654296875 227.770998046875 329.8175525390625zM184.018376953125 576.8911775390626L9.007892578125 401.8806931640626C-3.0884203125 389.7843802734376 -3.0884203125 370.2243849609376 9.007892578125 358.25675625L38.0905171875 329.1741316406251C50.186830078125 317.0778187500001 69.746825390625 317.0778187500001 81.7144541015625 329.1741316406251L205.7660033203125 453.2256808593751L329.8175525390626 329.1741316406251C341.9138654296875 317.0778187500001 361.4738607421876 317.0778187500001 373.4414894531251 329.1741316406251L402.5241140625001 358.25675625C414.6204269531251 370.3530691406251 414.6204269531251 389.9130644531251 402.5241140625001 401.8806931640626L227.5136296875001 576.8911775390626C215.67468515625 588.9874904296876 196.11468984375 588.9874904296876 184.018376953125 576.8911775390626z" />
    <glyph glyph-name="angle-down"
      unicode="&#xF141;"
      horiz-adv-x="411.78937500000006" d=" M184.018376953125 205.5086349609375L9.007892578125 380.5191193359376C-3.0884203125 392.6154322265625 -3.0884203125 412.1754275390626 9.007892578125 424.1430562500001L38.0905171875 453.225680859375C50.186830078125 465.32199375 69.746825390625 465.32199375 81.7144541015625 453.225680859375L205.7660033203125 329.174131640625L329.8175525390626 453.225680859375C341.9138654296875 465.32199375 361.4738607421876 465.32199375 373.4414894531251 453.225680859375L402.5241140625001 424.14305625C414.6204269531251 412.046743359375 414.6204269531251 392.486748046875 402.5241140625001 380.5191193359375L227.5136296875001 205.5086349609375C215.67468515625 193.4123220703125 196.11468984375 193.4123220703125 184.018376953125 205.5086349609375z" />
    <glyph glyph-name="angle-left"
      unicode="&#xF142;"
      horiz-adv-x="329.4315" d=" M40.7928849609375 351.3078105468751L215.8033693359375 526.318294921875C227.8996822265625 538.4146078125001 247.4596775390625 538.4146078125001 259.42730625 526.318294921875L288.509930859375 497.2356703125C300.6062437500001 485.139357421875 300.6062437500001 465.579362109375 288.509930859375 453.6117333984375L164.5870658203125 329.4315000000001L288.6386150390626 205.3799507812501C300.7349279296876 193.2836378906251 300.7349279296876 173.723642578125 288.6386150390626 161.7560138671876L259.5559904296875 132.5447050781251C247.4596775390625 120.4483921875001 227.8996822265625 120.4483921875001 215.932053515625 132.5447050781251L40.921569140625 307.555189453125C28.6965720703125 319.65150234375 28.6965720703125 339.21149765625 40.7928849609375 351.3078105468751z" />
    <glyph glyph-name="angle-right"
      unicode="&#xF143;"
      horiz-adv-x="329.4315" d=" M288.6386150390626 307.555189453125L113.6281306640625 132.5447050781251C101.5318177734375 120.4483921875001 81.9718224609375 120.4483921875001 70.00419375 132.5447050781251L40.921569140625 161.6273296875C28.82525625 173.723642578125 28.82525625 193.2836378906251 40.921569140625 205.2512666015625L164.973118359375 329.3028158203125L40.921569140625 453.3543650390625C28.82525625 465.4506779296875 28.82525625 485.0106732421875 40.921569140625 496.978301953125L69.8755095703125 526.318294921875C81.9718224609375 538.4146078125001 101.5318177734375 538.4146078125001 113.499446484375 526.318294921875L288.509930859375 351.3078105468751C300.7349279296875 339.21149765625 300.7349279296875 319.65150234375 288.6386150390626 307.555189453125z" />
    </font>
</defs>
</svg>
